<svg version="1.1" xmlns="http://www.w3.org/2000/svg" viewBox="0 0 820 840" width="1640" height="1680">
  <!-- svg-source:excalidraw -->
  
  <defs>
    <style>
      @font-face {
        font-family: "Virgil";
        src: url("/dist/excalidraw-assets/Virgil.woff2");
      }
      @font-face {
        font-family: "Cascadia";
        src: url("/dist/excalidraw-assets/Cascadia.woff2");
      }
      @font-face {
        font-family: "GoogleSans_Regular";
        src: url("/dist/excalidraw-assets/GoogleSans_Regular.ttf");
      }
      @font-face {
        font-family: "GoogleSans_Medium";
        src: url("/dist/excalidraw-assets/GoogleSans_Medium.ttf");
      }
    </style>
  </defs>
  <g stroke-linecap="round" transform="translate(10 10) rotate(0 400 410)"><path d="M0 0 L800 0 L800 820 L0 820" stroke="none" stroke-width="0" fill="#FFF"></path><path d="M0 0 C232.8 0, 465.6 0, 800 0 M0 0 C312.24 0, 624.47 0, 800 0 M800 0 C800 224.04, 800 448.09, 800 820 M800 0 C800 278.94, 800 557.88, 800 820 M800 820 C616.15 820, 432.3 820, 0 820 M800 820 C634.38 820, 468.76 820, 0 820 M0 820 C0 564.13, 0 308.26, 0 0 M0 820 C0 587.95, 0 355.89, 0 0" stroke="#d5d7dc" stroke-width="2" fill="none"></path></g><g stroke-linecap="round" transform="translate(30 210) rotate(0 380 300)"><path d="M0 0 L760 0 L760 600 L0 600" stroke="none" stroke-width="0" fill="#f1f3f4"></path><path d="M0 0 C189.1 0, 378.21 0, 760 0 M0 0 C246.35 0, 492.69 0, 760 0 M760 0 C760 145.23, 760 290.46, 760 600 M760 0 C760 121.11, 760 242.21, 760 600 M760 600 C584.62 600, 409.23 600, 0 600 M760 600 C465.15 600, 170.3 600, 0 600 M0 600 C0 366.93, 0 133.86, 0 0 M0 600 C0 440.17, 0 280.34, 0 0" stroke="#FFFFFF" stroke-width="2" fill="none"></path></g><g stroke-opacity="0.8" fill-opacity="0.8" transform="translate(50 230) rotate(0 95.5 11.5)"><text x="0" y="19" font-family="Helvetica, Segoe UI Emoji" font-size="20px" fill="#202124" text-anchor="start" style="white-space: pre;" direction="ltr">Google Cloud Project</text></g><g stroke-linecap="round" transform="translate(50 270) rotate(0 360 260)"><path d="M0 0 L720 0 L720 520 L0 520" stroke="none" stroke-width="0" fill="#d2e3fc"></path><path d="M0 0 C230.84 0, 461.69 0, 720 0 M0 0 C194.48 0, 388.96 0, 720 0 M720 0 C720 176.54, 720 353.08, 720 520 M720 0 C720 113.58, 720 227.16, 720 520 M720 520 C493.53 520, 267.07 520, 0 520 M720 520 C563.15 520, 406.29 520, 0 520 M0 520 C0 331.93, 0 143.85, 0 0 M0 520 C0 325.58, 0 131.17, 0 0" stroke="#4285f4" stroke-width="2" fill="none"></path></g><g stroke-opacity="0.8" fill-opacity="0.8" transform="translate(310 290) rotate(0 82 9.5)"><text x="0" y="15" font-family="Helvetica, Segoe UI Emoji" font-size="16px" fill="#202124" text-anchor="start" style="white-space: pre;" direction="ltr">IMAGE PROCESSING</text></g><g stroke-linecap="round" transform="translate(30 30) rotate(0 370 80)"><path d="M0 0 L740 0 L740 160 L0 160" stroke="none" stroke-width="0" fill="#d2e3fc"></path><path d="M0 0 C250.51 0, 501.01 0, 740 0 M0 0 C286.73 0, 573.46 0, 740 0 M740 0 C740 37.72, 740 75.44, 740 160 M740 0 C740 57.21, 740 114.42, 740 160 M740 160 C451.58 160, 163.15 160, 0 160 M740 160 C463.46 160, 186.92 160, 0 160 M0 160 C0 112.07, 0 64.13, 0 0 M0 160 C0 100.42, 0 40.85, 0 0" stroke="#4285f4" stroke-width="2" fill="none"></path></g><g stroke-opacity="0.8" fill-opacity="0.8" transform="translate(370 50) rotate(0 23.5 9.5)"><text x="0" y="15" font-family="Helvetica, Segoe UI Emoji" font-size="16.444444444444446px" fill="#202124" text-anchor="start" style="white-space: pre;" direction="ltr">USER</text></g><g stroke-linecap="round" transform="translate(90 430) rotate(0 140 90)"><path d="M0 0 L280 0 L280 180 L0 180" stroke="none" stroke-width="0" fill="#FDE293"></path><path d="M0 0 C92.28 0, 184.57 0, 280 0 M0 0 C58.55 0, 117.09 0, 280 0 M280 0 C280 66.57, 280 133.13, 280 180 M280 0 C280 68.42, 280 136.83, 280 180 M280 180 C221.28 180, 162.56 180, 0 180 M280 180 C203.17 180, 126.33 180, 0 180 M0 180 C0 114.57, 0 49.14, 0 0 M0 180 C0 114.32, 0 48.64, 0 0" stroke="#F9AB00" stroke-width="2" fill="none"></path></g><g stroke-opacity="0.8" fill-opacity="0.8" transform="translate(150 450) rotate(0 36.5 9.5)"><text x="0" y="15" font-family="Helvetica, Segoe UI Emoji" font-size="16px" fill="#202124" text-anchor="start" style="white-space: pre;" direction="ltr">REST API</text></g><g stroke-linecap="round" transform="translate(110 530) rotate(0 120 30)"><path d="M6 0 L236.63 0.38 L238.5 1.5 L240 6 L239.63 56.63 L238.5 58.5 L234 60 L3.38 59.63 L1.5 58.5 L0 54 L0 6 L1.5 1.5 L6 0" stroke="none" stroke-width="0" fill="#FFF"></path><path d="M6 0 M6 0 C87.57 0, 169.15 0, 234 0 M6 0 C79.1 0, 152.2 0, 234 0 M234 0 C238 0, 240 2, 240 6 M234 0 C238 0, 240 2, 240 6 M240 6 C240 18.52, 240 31.05, 240 54 M240 6 C240 17.06, 240 28.11, 240 54 M240 54 C240 58, 238 60, 234 60 M240 54 C240 58, 238 60, 234 60 M234 60 C181.47 60, 128.94 60, 6 60 M234 60 C147.5 60, 60.99 60, 6 60 M6 60 C2 60, 0 58, 0 54 M6 60 C2 60, 0 58, 0 54 M0 54 C0 40.6, 0 27.2, 0 6 M0 54 C0 37.32, 0 20.63, 0 6 M0 6 C0 2, 2 0, 6 0 M0 6 C0 2, 2 0, 6 0" stroke="#202124" stroke-width="1" fill="none"></path></g><g transform="translate(126 546) rotate(0 58.5 9.5)"><text x="0" y="15" font-family="Helvetica, Segoe UI Emoji" font-size="16px" fill="#1A73E8" text-anchor="start" style="white-space: pre;" direction="ltr">Cloud Functions</text></g><g stroke-linecap="round"><g transform="translate(311.35987746715546 561.7378263473511) rotate(0 1.591424286365509 -3.7764174938201904)" fill-rule="evenodd"><path d="M0 0 L3.18 2.59 L3.18 -10.14 L0 -7.56 L0 0" stroke="none" stroke-width="0" fill="#669df6" fill-rule="evenodd"></path><path d="M0 0 C1.02 0.83, 2.03 1.65, 3.18 2.59 M0 0 C0.98 0.8, 1.96 1.6, 3.18 2.59 M3.18 2.59 C3.18 -1.09, 3.18 -4.77, 3.18 -10.14 M3.18 2.59 C3.18 -2.39, 3.18 -7.36, 3.18 -10.14 M3.18 -10.14 C1.99 -9.18, 0.8 -8.21, 0 -7.56 M3.18 -10.14 C2.31 -9.44, 1.44 -8.73, 0 -7.56 M0 -7.56 C0 -5.79, 0 -4.02, 0 0 M0 -7.56 C0 -5.69, 0 -3.81, 0 0 M0 0 C0 0, 0 0, 0 0 M0 0 C0 0, 0 0, 0 0" stroke="#00000000" stroke-width="1" fill="none"></path></g></g><g stroke-linecap="round"><g transform="translate(311.35987746715546 555.8388977050781) rotate(0 1.591424286365509 -2.120673894882202)" fill-rule="evenodd"><path d="M0 0 L3.18 -2.12 L3.18 -4.24 L0 0" stroke="none" stroke-width="0" fill="#4285f4" fill-rule="evenodd"></path><path d="M0 0 C0.75 -0.5, 1.5 -1, 3.18 -2.12 M0 0 C0.78 -0.52, 1.55 -1.04, 3.18 -2.12 M3.18 -2.12 C3.18 -2.68, 3.18 -3.23, 3.18 -4.24 M3.18 -2.12 C3.18 -2.75, 3.18 -3.38, 3.18 -4.24 M3.18 -4.24 C2.52 -3.35, 1.85 -2.47, 0 0 M3.18 -4.24 C2.33 -3.1, 1.47 -1.96, 0 0 M0 0 C0 0, 0 0, 0 0 M0 0 C0 0, 0 0, 0 0" stroke="#00000000" stroke-width="1" fill="none"></path></g></g><g stroke-linecap="round"><g transform="translate(314.5427260398865 564.325267791748) rotate(0 -1.591424286365509 -2.122511386871338)" fill-rule="evenodd"><path d="M0 0 L0 -2.12 L-3.18 -4.25 L0 0" stroke="none" stroke-width="0" fill="#4285f4" fill-rule="evenodd"></path><path d="M0 0 C0 -0.61, 0 -1.23, 0 -2.12 M0 0 C0 -0.45, 0 -0.9, 0 -2.12 M0 -2.12 C-1.17 -2.9, -2.34 -3.68, -3.18 -4.25 M0 -2.12 C-1.08 -2.84, -2.15 -3.56, -3.18 -4.25 M-3.18 -4.25 C-2.09 -2.79, -1 -1.34, 0 0 M-3.18 -4.25 C-2.35 -3.13, -1.51 -2.02, 0 0 M0 0 C0 0, 0 0, 0 0 M0 0 C0 0, 0 0, 0 0" stroke="#00000000" stroke-width="1" fill="none"></path></g></g><g stroke-linecap="round"><g transform="translate(317.7218990325928 566.4459419250488) rotate(0 -3.1810107827186584 -2.122511386871338)" fill-rule="evenodd"><path d="M0 0 L-6.36 -6.37 L-6.36 -2.12 L-2.12 2.12 L0 0" stroke="none" stroke-width="0" fill="#aecbfa" fill-rule="evenodd"></path><path d="M0 0 C-2.23 -2.23, -4.46 -4.46, -6.36 -6.37 M0 0 C-1.42 -1.42, -2.83 -2.84, -6.36 -6.37 M-6.36 -6.37 C-6.36 -5, -6.36 -3.64, -6.36 -2.12 M-6.36 -6.37 C-6.36 -4.94, -6.36 -3.52, -6.36 -2.12 M-6.36 -2.12 C-4.82 -0.58, -3.28 0.96, -2.12 2.12 M-6.36 -2.12 C-5.12 -0.88, -3.88 0.36, -2.12 2.12 M-2.12 2.12 C-1.45 1.45, -0.78 0.78, 0 0 M-2.12 2.12 C-1.65 1.65, -1.17 1.17, 0 0 M0 0 C0 0, 0 0, 0 0 M0 0 C0 0, 0 0, 0 0" stroke="#00000000" stroke-width="1" fill="none"></path></g></g><g stroke-linecap="round"><g transform="translate(315.59019947052 547.367228269577) rotate(0 -1.0529866814613342 4.235834717750549)" fill-rule="evenodd"><path d="M0 0 L-4.23 4.23 L-4.22 8.47 L2.12 2.12 L0 0" stroke="none" stroke-width="0" fill="#aecbfa" fill-rule="evenodd"></path><path d="M0 0 C-1.1 1.1, -2.2 2.2, -4.23 4.23 M0 0 C-1.35 1.35, -2.7 2.7, -4.23 4.23 M-4.23 4.23 C-4.23 5.68, -4.22 7.14, -4.22 8.47 M-4.23 4.23 C-4.23 5.46, -4.22 6.68, -4.22 8.47 M-4.22 8.47 C-1.97 6.22, 0.27 3.97, 2.12 2.12 M-4.22 8.47 C-2.15 6.4, -0.07 4.32, 2.12 2.12 M2.12 2.12 C1.42 1.42, 0.72 0.72, 0 0 M2.12 2.12 C1.39 1.39, 0.65 0.65, 0 0 M0 0 C0 0, 0 0, 0 0 M0 0 C0 0, 0 0, 0 0" stroke="#00000000" stroke-width="1" fill="none"></path></g></g><g stroke-linecap="round"><g transform="translate(332.5702896118164 554.1960182189941) rotate(0 -1.5895862579345703 3.7764170169830322)" fill-rule="evenodd"><path d="M0 0 L-3.18 -2.59 L-3.18 10.14 L0 7.57 L0 0" stroke="none" stroke-width="0" fill="#669df6" fill-rule="evenodd"></path><path d="M0 0 C-0.74 -0.6, -1.48 -1.21, -3.18 -2.59 M0 0 C-1.23 -1, -2.46 -2, -3.18 -2.59 M-3.18 -2.59 C-3.18 0.17, -3.18 2.93, -3.18 10.14 M-3.18 -2.59 C-3.18 0.83, -3.18 4.25, -3.18 10.14 M-3.18 10.14 C-2.36 9.48, -1.54 8.82, 0 7.57 M-3.18 10.14 C-2.25 9.39, -1.32 8.64, 0 7.57 M0 7.57 C0 5.42, 0 3.28, 0 0 M0 7.57 C0 5.7, 0 3.82, 0 0 M0 0 C0 0, 0 0, 0 0 M0 0 C0 0, 0 0, 0 0" stroke="#00000000" stroke-width="1" fill="none"></path></g></g><g stroke-linecap="round"><g transform="translate(332.5702896118164 560.0912704467773) rotate(0 -1.5895862579345703 2.122511863708496)" fill-rule="evenodd"><path d="M0 0 L-3.18 2.12 L-3.18 4.25 L0 0" stroke="none" stroke-width="0" fill="#4285f4" fill-rule="evenodd"></path><path d="M0 0 C-0.71 0.48, -1.43 0.95, -3.18 2.12 M0 0 C-1.26 0.84, -2.52 1.68, -3.18 2.12 M-3.18 2.12 C-3.18 2.8, -3.18 3.48, -3.18 4.25 M-3.18 2.12 C-3.18 2.68, -3.18 3.23, -3.18 4.25 M-3.18 4.25 C-2.45 3.27, -1.71 2.29, 0 0 M-3.18 4.25 C-2.29 3.06, -1.4 1.87, 0 0 M0 0 C0 0, 0 0, 0 0 M0 0 C0 0, 0 0, 0 0" stroke="#00000000" stroke-width="1" fill="none"></path></g></g><g stroke-linecap="round"><g transform="translate(329.39111709594727 551.60857629776) rotate(0 1.5895862579345703 2.120673418045044)" fill-rule="evenodd"><path d="M0 0 L0 2.12 L3.18 4.24 L0 0" stroke="none" stroke-width="0" fill="#4285f4" fill-rule="evenodd"></path><path d="M0 0 C0 0.61, 0 1.23, 0 2.12 M0 0 C0 0.63, 0 1.26, 0 2.12 M0 2.12 C0.95 2.75, 1.9 3.39, 3.18 4.24 M0 2.12 C1.04 2.82, 2.08 3.51, 3.18 4.24 M3.18 4.24 C2.44 3.25, 1.7 2.27, 0 0 M3.18 4.24 C2.01 2.68, 0.84 1.12, 0 0 M0 0 C0 0, 0 0, 0 0 M0 0 C0 0, 0 0, 0 0" stroke="#00000000" stroke-width="1" fill="none"></path></g></g><g stroke-linecap="round"><g transform="translate(326.2082691192627 549.4879021644592) rotate(0 3.1810102462768555 2.1206735372543335)" fill-rule="evenodd"><path d="M0 0 L6.36 6.36 L6.36 2.12 L2.12 -2.12 L0 0" stroke="none" stroke-width="0" fill="#aecbfa" fill-rule="evenodd"></path><path d="M0 0 C2.54 2.54, 5.08 5.08, 6.36 6.36 M0 0 C1.74 1.74, 3.47 3.47, 6.36 6.36 M6.36 6.36 C6.36 5.34, 6.36 4.33, 6.36 2.12 M6.36 6.36 C6.36 4.78, 6.36 3.2, 6.36 2.12 M6.36 2.12 C4.94 0.7, 3.52 -0.72, 2.12 -2.12 M6.36 2.12 C4.77 0.52, 3.17 -1.07, 2.12 -2.12 M2.12 -2.12 C1.62 -1.62, 1.13 -1.13, 0 0 M2.12 -2.12 C1.52 -1.52, 0.92 -0.92, 0 0 M0 0 C0 0, 0 0, 0 0 M0 0 C0 0, 0 0, 0 0" stroke="#00000000" stroke-width="1" fill="none"></path></g></g><g stroke-linecap="round"><g transform="translate(328.33996963500977 568.5666160583496) rotate(0 1.0548229217529297 -4.237672805786133)" fill-rule="evenodd"><path d="M0 0 L4.23 -4.23 L4.22 -8.48 L-2.12 -2.12 L0 0" stroke="none" stroke-width="0" fill="#aecbfa" fill-rule="evenodd"></path><path d="M0 0 C1.16 -1.16, 2.31 -2.31, 4.23 -4.23 M0 0 C0.87 -0.87, 1.75 -1.75, 4.23 -4.23 M4.23 -4.23 C4.23 -5.1, 4.23 -5.98, 4.22 -8.48 M4.23 -4.23 C4.23 -5.26, 4.22 -6.29, 4.22 -8.48 M4.22 -8.48 C1.92 -6.17, -0.38 -3.86, -2.12 -2.12 M4.22 -8.48 C2.75 -7, 1.28 -5.53, -2.12 -2.12 M-2.12 -2.12 C-1.48 -1.48, -0.85 -0.85, 0 0 M-2.12 -2.12 C-1.51 -1.51, -0.89 -0.89, 0 0 M0 0 C0 0, 0 0, 0 0 M0 0 C0 0, 0 0, 0 0" stroke="#00000000" stroke-width="1" fill="none"></path></g></g><g stroke-linecap="round" transform="translate(316.65972423553467 556.8973970413208) rotate(0 1.0621745586395264 1.0621745586395264)"><path d="M2.12 1.06 C2.12 1.12, 2.12 1.19, 2.11 1.25 C2.1 1.31, 2.08 1.37, 2.06 1.43 C2.04 1.48, 2.01 1.54, 1.98 1.59 C1.95 1.65, 1.92 1.7, 1.88 1.74 C1.84 1.79, 1.79 1.84, 1.74 1.88 C1.7 1.92, 1.65 1.95, 1.59 1.98 C1.54 2.01, 1.48 2.04, 1.43 2.06 C1.37 2.08, 1.31 2.1, 1.25 2.11 C1.19 2.12, 1.12 2.12, 1.06 2.12 C1 2.12, 0.94 2.12, 0.88 2.11 C0.82 2.1, 0.76 2.08, 0.7 2.06 C0.64 2.04, 0.58 2.01, 0.53 1.98 C0.48 1.95, 0.43 1.92, 0.38 1.88 C0.33 1.84, 0.29 1.79, 0.25 1.74 C0.21 1.7, 0.17 1.65, 0.14 1.59 C0.11 1.54, 0.09 1.48, 0.06 1.43 C0.04 1.37, 0.03 1.31, 0.02 1.25 C0.01 1.19, 0 1.12, 0 1.06 C0 1, 0.01 0.94, 0.02 0.88 C0.03 0.82, 0.04 0.76, 0.06 0.7 C0.09 0.64, 0.11 0.58, 0.14 0.53 C0.17 0.48, 0.21 0.43, 0.25 0.38 C0.29 0.33, 0.33 0.29, 0.38 0.25 C0.43 0.21, 0.48 0.17, 0.53 0.14 C0.58 0.11, 0.64 0.09, 0.7 0.06 C0.76 0.04, 0.82 0.03, 0.88 0.02 C0.94 0.01, 1 0, 1.06 0 C1.12 0, 1.19 0.01, 1.25 0.02 C1.31 0.03, 1.37 0.04, 1.43 0.06 C1.48 0.09, 1.54 0.11, 1.59 0.14 C1.65 0.17, 1.7 0.21, 1.74 0.25 C1.79 0.29, 1.84 0.33, 1.88 0.38 C1.92 0.43, 1.95 0.48, 1.98 0.53 C2.01 0.58, 2.04 0.64, 2.06 0.7 C2.08 0.76, 2.1 0.82, 2.11 0.88 C2.12 0.94, 2.12 1.03, 2.12 1.06 C2.13 1.09, 2.13 1.03, 2.12 1.06" stroke="none" stroke-width="0" fill="#aecbfa"></path><path d="M2.12 1.06 C2.12 1.12, 2.12 1.19, 2.11 1.25 C2.1 1.31, 2.08 1.37, 2.06 1.43 C2.04 1.48, 2.01 1.54, 1.98 1.59 C1.95 1.65, 1.92 1.7, 1.88 1.74 C1.84 1.79, 1.79 1.84, 1.74 1.88 C1.7 1.92, 1.65 1.95, 1.59 1.98 C1.54 2.01, 1.48 2.04, 1.43 2.06 C1.37 2.08, 1.31 2.1, 1.25 2.11 C1.19 2.12, 1.12 2.12, 1.06 2.12 C1 2.12, 0.94 2.12, 0.88 2.11 C0.82 2.1, 0.76 2.08, 0.7 2.06 C0.64 2.04, 0.58 2.01, 0.53 1.98 C0.48 1.95, 0.43 1.92, 0.38 1.88 C0.33 1.84, 0.29 1.79, 0.25 1.74 C0.21 1.7, 0.17 1.65, 0.14 1.59 C0.11 1.54, 0.09 1.48, 0.06 1.43 C0.04 1.37, 0.03 1.31, 0.02 1.25 C0.01 1.19, 0 1.12, 0 1.06 C0 1, 0.01 0.94, 0.02 0.88 C0.03 0.82, 0.04 0.76, 0.06 0.7 C0.09 0.64, 0.11 0.58, 0.14 0.53 C0.17 0.48, 0.21 0.43, 0.25 0.38 C0.29 0.33, 0.33 0.29, 0.38 0.25 C0.43 0.21, 0.48 0.17, 0.53 0.14 C0.58 0.11, 0.64 0.09, 0.7 0.06 C0.76 0.04, 0.82 0.03, 0.88 0.02 C0.94 0.01, 1 0, 1.06 0 C1.12 0, 1.19 0.01, 1.25 0.02 C1.31 0.03, 1.37 0.04, 1.43 0.06 C1.48 0.09, 1.54 0.11, 1.59 0.14 C1.65 0.17, 1.7 0.21, 1.74 0.25 C1.79 0.29, 1.84 0.33, 1.88 0.38 C1.92 0.43, 1.95 0.48, 1.98 0.53 C2.01 0.58, 2.04 0.64, 2.06 0.7 C2.08 0.76, 2.1 0.82, 2.11 0.88 C2.12 0.94, 2.12 1.03, 2.12 1.06 C2.13 1.09, 2.13 1.03, 2.12 1.06" stroke="transparent" stroke-width="1" fill="none"></path></g><g stroke-linecap="round" transform="translate(320.90474796295166 556.8973970413208) rotate(0 1.0621745586395264 1.0621745586395264)"><path d="M2.12 1.06 C2.12 1.12, 2.12 1.19, 2.11 1.25 C2.1 1.31, 2.08 1.37, 2.06 1.43 C2.04 1.48, 2.01 1.54, 1.98 1.59 C1.95 1.65, 1.92 1.7, 1.88 1.74 C1.84 1.79, 1.79 1.84, 1.74 1.88 C1.7 1.92, 1.65 1.95, 1.59 1.98 C1.54 2.01, 1.48 2.04, 1.43 2.06 C1.37 2.08, 1.31 2.1, 1.25 2.11 C1.19 2.12, 1.12 2.12, 1.06 2.12 C1 2.12, 0.94 2.12, 0.88 2.11 C0.82 2.1, 0.76 2.08, 0.7 2.06 C0.64 2.04, 0.58 2.01, 0.53 1.98 C0.48 1.95, 0.43 1.92, 0.38 1.88 C0.33 1.84, 0.29 1.79, 0.25 1.74 C0.21 1.7, 0.17 1.65, 0.14 1.59 C0.11 1.54, 0.09 1.48, 0.06 1.43 C0.04 1.37, 0.03 1.31, 0.02 1.25 C0.01 1.19, 0 1.12, 0 1.06 C0 1, 0.01 0.94, 0.02 0.88 C0.03 0.82, 0.04 0.76, 0.06 0.7 C0.09 0.64, 0.11 0.58, 0.14 0.53 C0.17 0.48, 0.21 0.43, 0.25 0.38 C0.29 0.33, 0.33 0.29, 0.38 0.25 C0.43 0.21, 0.48 0.17, 0.53 0.14 C0.58 0.11, 0.64 0.09, 0.7 0.06 C0.76 0.04, 0.82 0.03, 0.88 0.02 C0.94 0.01, 1 0, 1.06 0 C1.12 0, 1.19 0.01, 1.25 0.02 C1.31 0.03, 1.37 0.04, 1.43 0.06 C1.48 0.09, 1.54 0.11, 1.59 0.14 C1.65 0.17, 1.7 0.21, 1.74 0.25 C1.79 0.29, 1.84 0.33, 1.88 0.38 C1.92 0.43, 1.95 0.48, 1.98 0.53 C2.01 0.58, 2.04 0.64, 2.06 0.7 C2.08 0.76, 2.1 0.82, 2.11 0.88 C2.12 0.94, 2.12 1.03, 2.12 1.06 C2.13 1.09, 2.13 1.03, 2.12 1.06" stroke="none" stroke-width="0" fill="#aecbfa"></path><path d="M2.12 1.06 C2.12 1.12, 2.12 1.19, 2.11 1.25 C2.1 1.31, 2.08 1.37, 2.06 1.43 C2.04 1.48, 2.01 1.54, 1.98 1.59 C1.95 1.65, 1.92 1.7, 1.88 1.74 C1.84 1.79, 1.79 1.84, 1.74 1.88 C1.7 1.92, 1.65 1.95, 1.59 1.98 C1.54 2.01, 1.48 2.04, 1.43 2.06 C1.37 2.08, 1.31 2.1, 1.25 2.11 C1.19 2.12, 1.12 2.12, 1.06 2.12 C1 2.12, 0.94 2.12, 0.88 2.11 C0.82 2.1, 0.76 2.08, 0.7 2.06 C0.64 2.04, 0.58 2.01, 0.53 1.98 C0.48 1.95, 0.43 1.92, 0.38 1.88 C0.33 1.84, 0.29 1.79, 0.25 1.74 C0.21 1.7, 0.17 1.65, 0.14 1.59 C0.11 1.54, 0.09 1.48, 0.06 1.43 C0.04 1.37, 0.03 1.31, 0.02 1.25 C0.01 1.19, 0 1.12, 0 1.06 C0 1, 0.01 0.94, 0.02 0.88 C0.03 0.82, 0.04 0.76, 0.06 0.7 C0.09 0.64, 0.11 0.58, 0.14 0.53 C0.17 0.48, 0.21 0.43, 0.25 0.38 C0.29 0.33, 0.33 0.29, 0.38 0.25 C0.43 0.21, 0.48 0.17, 0.53 0.14 C0.58 0.11, 0.64 0.09, 0.7 0.06 C0.76 0.04, 0.82 0.03, 0.88 0.02 C0.94 0.01, 1 0, 1.06 0 C1.12 0, 1.19 0.01, 1.25 0.02 C1.31 0.03, 1.37 0.04, 1.43 0.06 C1.48 0.09, 1.54 0.11, 1.59 0.14 C1.65 0.17, 1.7 0.21, 1.74 0.25 C1.79 0.29, 1.84 0.33, 1.88 0.38 C1.92 0.43, 1.95 0.48, 1.98 0.53 C2.01 0.58, 2.04 0.64, 2.06 0.7 C2.08 0.76, 2.1 0.82, 2.11 0.88 C2.12 0.94, 2.12 1.03, 2.12 1.06 C2.13 1.09, 2.13 1.03, 2.12 1.06" stroke="transparent" stroke-width="1" fill="none"></path></g><g stroke-linecap="round" transform="translate(325.1350688934326 556.8973970413208) rotate(0 1.0621745586395264 1.0621745586395264)"><path d="M2.12 1.06 C2.12 1.12, 2.12 1.19, 2.11 1.25 C2.1 1.31, 2.08 1.37, 2.06 1.43 C2.04 1.48, 2.01 1.54, 1.98 1.59 C1.95 1.65, 1.92 1.7, 1.88 1.74 C1.84 1.79, 1.79 1.84, 1.74 1.88 C1.7 1.92, 1.65 1.95, 1.59 1.98 C1.54 2.01, 1.48 2.04, 1.43 2.06 C1.37 2.08, 1.31 2.1, 1.25 2.11 C1.19 2.12, 1.12 2.12, 1.06 2.12 C1 2.12, 0.94 2.12, 0.88 2.11 C0.82 2.1, 0.76 2.08, 0.7 2.06 C0.64 2.04, 0.58 2.01, 0.53 1.98 C0.48 1.95, 0.43 1.92, 0.38 1.88 C0.33 1.84, 0.29 1.79, 0.25 1.74 C0.21 1.7, 0.17 1.65, 0.14 1.59 C0.11 1.54, 0.09 1.48, 0.06 1.43 C0.04 1.37, 0.03 1.31, 0.02 1.25 C0.01 1.19, 0 1.12, 0 1.06 C0 1, 0.01 0.94, 0.02 0.88 C0.03 0.82, 0.04 0.76, 0.06 0.7 C0.09 0.64, 0.11 0.58, 0.14 0.53 C0.17 0.48, 0.21 0.43, 0.25 0.38 C0.29 0.33, 0.33 0.29, 0.38 0.25 C0.43 0.21, 0.48 0.17, 0.53 0.14 C0.58 0.11, 0.64 0.09, 0.7 0.06 C0.76 0.04, 0.82 0.03, 0.88 0.02 C0.94 0.01, 1 0, 1.06 0 C1.12 0, 1.19 0.01, 1.25 0.02 C1.31 0.03, 1.37 0.04, 1.43 0.06 C1.48 0.09, 1.54 0.11, 1.59 0.14 C1.65 0.17, 1.7 0.21, 1.74 0.25 C1.79 0.29, 1.84 0.33, 1.88 0.38 C1.92 0.43, 1.95 0.48, 1.98 0.53 C2.01 0.58, 2.04 0.64, 2.06 0.7 C2.08 0.76, 2.1 0.82, 2.11 0.88 C2.12 0.94, 2.12 1.03, 2.12 1.06 C2.13 1.09, 2.13 1.03, 2.12 1.06" stroke="none" stroke-width="0" fill="#aecbfa"></path><path d="M2.12 1.06 C2.12 1.12, 2.12 1.19, 2.11 1.25 C2.1 1.31, 2.08 1.37, 2.06 1.43 C2.04 1.48, 2.01 1.54, 1.98 1.59 C1.95 1.65, 1.92 1.7, 1.88 1.74 C1.84 1.79, 1.79 1.84, 1.74 1.88 C1.7 1.92, 1.65 1.95, 1.59 1.98 C1.54 2.01, 1.48 2.04, 1.43 2.06 C1.37 2.08, 1.31 2.1, 1.25 2.11 C1.19 2.12, 1.12 2.12, 1.06 2.12 C1 2.12, 0.94 2.12, 0.88 2.11 C0.82 2.1, 0.76 2.08, 0.7 2.06 C0.64 2.04, 0.58 2.01, 0.53 1.98 C0.48 1.95, 0.43 1.92, 0.38 1.88 C0.33 1.84, 0.29 1.79, 0.25 1.74 C0.21 1.7, 0.17 1.65, 0.14 1.59 C0.11 1.54, 0.09 1.48, 0.06 1.43 C0.04 1.37, 0.03 1.31, 0.02 1.25 C0.01 1.19, 0 1.12, 0 1.06 C0 1, 0.01 0.94, 0.02 0.88 C0.03 0.82, 0.04 0.76, 0.06 0.7 C0.09 0.64, 0.11 0.58, 0.14 0.53 C0.17 0.48, 0.21 0.43, 0.25 0.38 C0.29 0.33, 0.33 0.29, 0.38 0.25 C0.43 0.21, 0.48 0.17, 0.53 0.14 C0.58 0.11, 0.64 0.09, 0.7 0.06 C0.76 0.04, 0.82 0.03, 0.88 0.02 C0.94 0.01, 1 0, 1.06 0 C1.12 0, 1.19 0.01, 1.25 0.02 C1.31 0.03, 1.37 0.04, 1.43 0.06 C1.48 0.09, 1.54 0.11, 1.59 0.14 C1.65 0.17, 1.7 0.21, 1.74 0.25 C1.79 0.29, 1.84 0.33, 1.88 0.38 C1.92 0.43, 1.95 0.48, 1.98 0.53 C2.01 0.58, 2.04 0.64, 2.06 0.7 C2.08 0.76, 2.1 0.82, 2.11 0.88 C2.12 0.94, 2.12 1.03, 2.12 1.06 C2.13 1.09, 2.13 1.03, 2.12 1.06" stroke="transparent" stroke-width="1" fill="none"></path></g><g stroke-linecap="round" transform="translate(350 90) rotate(0 44 41)"><path d="M8.2 0 L79.8 0 L83.39 0.51 L85.95 2.05 L87.49 4.61 L88 8.2 L88 73.8 L87.49 77.39 L85.95 79.95 L83.39 81.49 L79.8 82 L8.2 82 L4.61 81.49 L2.05 79.95 L0.51 77.39 L0 73.8 L0 8.2 L0.51 4.61 L2.05 2.05 L4.61 0.51 L8.2 0" stroke="none" stroke-width="0" fill="#FFF"></path><path d="M8.2 0 M8.2 0 C28.14 0, 48.07 0, 79.8 0 M8.2 0 C23.1 0, 38 0, 79.8 0 M79.8 0 C85.27 0, 88 2.73, 88 8.2 M79.8 0 C85.27 0, 88 2.73, 88 8.2 M88 8.2 C88 25.28, 88 42.36, 88 73.8 M88 8.2 C88 31.32, 88 54.44, 88 73.8 M88 73.8 C88 79.27, 85.27 82, 79.8 82 M88 73.8 C88 79.27, 85.27 82, 79.8 82 M79.8 82 C58.6 82, 37.41 82, 8.2 82 M79.8 82 C58.43 82, 37.05 82, 8.2 82 M8.2 82 C2.73 82, 0 79.27, 0 73.8 M8.2 82 C2.73 82, 0 79.27, 0 73.8 M0 73.8 C0 56.12, 0 38.44, 0 8.2 M0 73.8 C0 54.18, 0 34.56, 0 8.2 M0 8.2 C0 2.73, 2.73 0, 8.2 0 M0 8.2 C0 2.73, 2.73 0, 8.2 0" stroke="#202124" stroke-width="1" fill="none"></path></g><g transform="translate(366 138) rotate(0 28 9)"><text x="28" y="16" font-family="Helvetica, Segoe UI Emoji" font-size="16px" fill="#202124" text-anchor="middle" style="white-space: pre;" direction="ltr">Computer</text></g><g stroke-linecap="round"><g transform="translate(382 106) rotate(0 12 12)" fill-rule="evenodd"><path d="M0 0 L24 0 L24 24 L0 24 L0 0" stroke="none" stroke-width="0" fill="#00000000" fill-rule="evenodd"></path><path d="M0 0 C7.35 0, 14.71 0, 24 0 M0 0 C9.07 0, 18.14 0, 24 0 M24 0 C24 9.44, 24 18.89, 24 24 M24 0 C24 4.82, 24 9.64, 24 24 M24 24 C18.58 24, 13.16 24, 0 24 M24 24 C16.62 24, 9.25 24, 0 24 M0 24 C0 14.7, 0 5.39, 0 0 M0 24 C0 15.47, 0 6.93, 0 0 M0 0 C0 0, 0 0, 0 0 M0 0 C0 0, 0 0, 0 0" stroke="#00000000" stroke-width="1" fill="none"></path></g></g><g stroke-linecap="round"><g transform="translate(402 124) rotate(0 -8 -6)" fill-rule="evenodd"><path d="M0 0 L0 0 L0.77 -0.16 L1.41 -0.59 L1.83 -1.22 L1.99 -2 L2 -12 L2 -12 L1.84 -12.78 L1.41 -13.41 L0.78 -13.84 L0 -14 L-16 -14 L-16 -14 L-16.78 -13.84 L-17.41 -13.41 L-17.84 -12.78 L-18 -12 L-18 -2 L-18 -2 L-17.84 -1.22 L-17.41 -0.59 L-16.78 -0.16 L-16 0 L-20 0 L-20 2 L4 2 L4 0 L0 0 L0 0" stroke="none" stroke-width="0" fill="#000" fill-rule="evenodd"></path><path d="M0 0 C0 0, 0 0, 0 0 M0 0 C0 0, 0 0, 0 0 M0 0 C0.17 -0.04, 0.34 -0.07, 0.77 -0.16 M0 0 C0.27 -0.05, 0.54 -0.11, 0.77 -0.16 M0.77 -0.16 C1.02 -0.32, 1.26 -0.48, 1.41 -0.59 M0.77 -0.16 C0.91 -0.25, 1.05 -0.34, 1.41 -0.59 M1.41 -0.59 C1.55 -0.8, 1.69 -1, 1.83 -1.22 M1.41 -0.59 C1.55 -0.8, 1.7 -1.02, 1.83 -1.22 M1.83 -1.22 C1.89 -1.52, 1.95 -1.82, 1.99 -2 M1.83 -1.22 C1.87 -1.4, 1.91 -1.58, 1.99 -2 M1.99 -2 C1.99 -4.49, 1.99 -6.98, 2 -12 M1.99 -2 C1.99 -5.62, 2 -9.24, 2 -12 M2 -12 C2 -12, 2 -12, 2 -12 M2 -12 C2 -12, 2 -12, 2 -12 M2 -12 C1.95 -12.23, 1.91 -12.46, 1.84 -12.78 M2 -12 C1.94 -12.28, 1.89 -12.56, 1.84 -12.78 M1.84 -12.78 C1.74 -12.93, 1.64 -13.08, 1.41 -13.41 M1.84 -12.78 C1.67 -13.03, 1.5 -13.28, 1.41 -13.41 M1.41 -13.41 C1.18 -13.57, 0.95 -13.72, 0.78 -13.84 M1.41 -13.41 C1.27 -13.51, 1.12 -13.61, 0.78 -13.84 M0.78 -13.84 C0.52 -13.89, 0.26 -13.95, 0 -14 M0.78 -13.84 C0.58 -13.88, 0.37 -13.92, 0 -14 M0 -14 C-6.33 -14, -12.67 -14, -16 -14 M0 -14 C-5.22 -14, -10.44 -14, -16 -14 M-16 -14 C-16 -14, -16 -14, -16 -14 M-16 -14 C-16 -14, -16 -14, -16 -14 M-16 -14 C-16.26 -13.95, -16.52 -13.89, -16.78 -13.84 M-16 -14 C-16.27 -13.94, -16.54 -13.89, -16.78 -13.84 M-16.78 -13.84 C-16.97 -13.71, -17.16 -13.59, -17.41 -13.41 M-16.78 -13.84 C-16.96 -13.72, -17.14 -13.6, -17.41 -13.41 M-17.41 -13.41 C-17.58 -13.16, -17.75 -12.91, -17.84 -12.78 M-17.41 -13.41 C-17.52 -13.25, -17.63 -13.09, -17.84 -12.78 M-17.84 -12.78 C-17.88 -12.57, -17.92 -12.37, -18 -12 M-17.84 -12.78 C-17.89 -12.56, -17.93 -12.35, -18 -12 M-18 -12 C-18 -8.62, -18 -5.23, -18 -2 M-18 -12 C-18 -8.61, -18 -5.22, -18 -2 M-18 -2 C-18 -2, -18 -2, -18 -2 M-18 -2 C-18 -2, -18 -2, -18 -2 M-18 -2 C-17.96 -1.82, -17.93 -1.64, -17.84 -1.22 M-18 -2 C-17.94 -1.71, -17.88 -1.43, -17.84 -1.22 M-17.84 -1.22 C-17.7 -1.01, -17.56 -0.8, -17.41 -0.59 M-17.84 -1.22 C-17.73 -1.06, -17.62 -0.9, -17.41 -0.59 M-17.41 -0.59 C-17.23 -0.46, -17.04 -0.33, -16.78 -0.16 M-17.41 -0.59 C-17.26 -0.48, -17.1 -0.38, -16.78 -0.16 M-16.78 -0.16 C-16.49 -0.1, -16.2 -0.04, -16 0 M-16.78 -0.16 C-16.48 -0.1, -16.18 -0.04, -16 0 M-16 0 C-16.92 0, -17.84 0, -20 0 M-16 0 C-17.34 0, -18.68 0, -20 0 M-20 0 C-20 0.41, -20 0.83, -20 2 M-20 0 C-20 0.8, -20 1.6, -20 2 M-20 2 C-12.52 2, -5.04 2, 4 2 M-20 2 C-11.76 2, -3.51 2, 4 2 M4 2 C4 1.39, 4 0.78, 4 0 M4 2 C4 1.24, 4 0.47, 4 0 M4 0 C2.86 0, 1.71 0, 0 0 M4 0 C3.06 0, 2.11 0, 0 0 M0 0 C0 0, 0 0, 0 0 M0 0 C0 0, 0 0, 0 0 M0 0 C0 0, 0 0, 0 0 M0 0 C0 0, 0 0, 0 0" stroke="#00000000" stroke-width="1" fill="none"></path></g></g><g stroke-linecap="round"><g transform="translate(386 112) rotate(0 8 5)" fill-rule="evenodd"><path d="M0 0 L16 0 L16 10 L0 10 L0 0" stroke="none" stroke-width="0" fill="#DEDEDE" fill-rule="evenodd"></path><path d="M0 0 C4.08 0, 8.16 0, 16 0 M0 0 C3.93 0, 7.87 0, 16 0 M16 0 C16 2.75, 16 5.49, 16 10 M16 0 C16 3.41, 16 6.82, 16 10 M16 10 C12.57 10, 9.15 10, 0 10 M16 10 C12.73 10, 9.46 10, 0 10 M0 10 C0 6.48, 0 2.96, 0 0 M0 10 C0 6.61, 0 3.23, 0 0 M0 0 C0 0, 0 0, 0 0 M0 0 C0 0, 0 0, 0 0" stroke="#00000000" stroke-width="1" fill="none"></path></g></g><g stroke-linecap="round" transform="translate(430 330) rotate(0 140 220)"><path d="M0 0 L280 0 L280 440 L0 440" stroke="none" stroke-width="0" fill="#FDE293"></path><path d="M0 0 C63.15 0, 126.31 0, 280 0 M0 0 C107.88 0, 215.75 0, 280 0 M280 0 C280 173.8, 280 347.6, 280 440 M280 0 C280 162.29, 280 324.58, 280 440 M280 440 C206.66 440, 133.31 440, 0 440 M280 440 C218.82 440, 157.64 440, 0 440 M0 440 C0 271.92, 0 103.85, 0 0 M0 440 C0 278.03, 0 116.06, 0 0" stroke="#F9AB00" stroke-width="2" fill="none"></path></g><g stroke-opacity="0.8" fill-opacity="0.8" transform="translate(510 350) rotate(0 62 9.5)"><text x="0" y="15" font-family="Helvetica, Segoe UI Emoji" font-size="16px" fill="#202124" text-anchor="start" style="white-space: pre;" direction="ltr">BATCH UPLOAD</text></g><g stroke-linecap="round" transform="translate(450 410) rotate(0 120 30)"><path d="M6 0 L236.63 0.38 L238.5 1.5 L240 6 L239.63 56.63 L238.5 58.5 L234 60 L3.38 59.63 L1.5 58.5 L0 54 L0 6 L1.5 1.5 L6 0" stroke="none" stroke-width="0" fill="#FFF"></path><path d="M6 0 M6 0 C81.01 0, 156.02 0, 234 0 M6 0 C94.46 0, 182.92 0, 234 0 M234 0 C238 0, 240 2, 240 6 M234 0 C238 0, 240 2, 240 6 M240 6 C240 19.98, 240 33.95, 240 54 M240 6 C240 15.71, 240 25.43, 240 54 M240 54 C240 58, 238 60, 234 60 M240 54 C240 58, 238 60, 234 60 M234 60 C147.05 60, 60.1 60, 6 60 M234 60 C185.44 60, 136.88 60, 6 60 M6 60 C2 60, 0 58, 0 54 M6 60 C2 60, 0 58, 0 54 M0 54 C0 40.8, 0 27.59, 0 6 M0 54 C0 42.04, 0 30.07, 0 6 M0 6 C0 2, 2 0, 6 0 M0 6 C0 2, 2 0, 6 0" stroke="#202124" stroke-width="1" fill="none"></path></g><g transform="translate(466 426) rotate(0 51.5 9.5)"><text x="0" y="15" font-family="Helvetica, Segoe UI Emoji" font-size="16px" fill="#1A73E8" text-anchor="start" style="white-space: pre;" direction="ltr">Cloud Storage</text></g><g stroke-linecap="round" transform="translate(652 430) rotate(0 10 3.5)"><path d="M0 0 L20 0 L20 7 L0 7" stroke="none" stroke-width="0" fill="#aecbfa"></path><path d="M0 0 C6.64 0, 13.28 0, 20 0 M0 0 C4.48 0, 8.97 0, 20 0 M20 0 C20 1.42, 20 2.83, 20 7 M20 0 C20 2.17, 20 4.35, 20 7 M20 7 C14.61 7, 9.21 7, 0 7 M20 7 C14.04 7, 8.07 7, 0 7 M0 7 C0 5.13, 0 3.26, 0 0 M0 7 C0 5.04, 0 3.08, 0 0" stroke="transparent" stroke-width="1" fill="none"></path></g><g stroke-linecap="round" transform="translate(670 430) rotate(0 1 3.5)"><path d="M0 0 L2 0 L2 7 L0 7" stroke="none" stroke-width="0" fill="#669df6"></path><path d="M0 0 C0.78 0, 1.57 0, 2 0 M0 0 C0.63 0, 1.26 0, 2 0 M2 0 C2 2.11, 2 4.21, 2 7 M2 0 C2 1.88, 2 3.75, 2 7 M2 7 C1.46 7, 0.92 7, 0 7 M2 7 C1.45 7, 0.9 7, 0 7 M0 7 C0 4.43, 0 1.87, 0 0 M0 7 C0 4.87, 0 2.75, 0 0" stroke="transparent" stroke-width="1" fill="none"></path></g><g stroke-linecap="round"><g transform="translate(672 430) rotate(0 -1 3.5)" fill-rule="evenodd"><path d="M0 0 L-2 0 L-2 7 L0 0 L0 0" stroke="none" stroke-width="0" fill="#4285f4" fill-rule="evenodd"></path><path d="M0 0 C-0.5 0, -0.99 0, -2 0 M0 0 C-0.65 0, -1.31 0, -2 0 M-2 0 C-2 2.28, -2 4.57, -2 7 M-2 0 C-2 2.76, -2 5.53, -2 7 M-2 7 C-1.31 4.59, -0.62 2.18, 0 0 M-2 7 C-1.44 5.02, -0.87 3.05, 0 0 M0 0 C0 0, 0 0, 0 0 M0 0 C0 0, 0 0, 0 0 M0 0 C0 0, 0 0, 0 0 M0 0 C0 0, 0 0, 0 0" stroke="#00000000" stroke-width="1" fill="none"></path></g></g><g stroke-linecap="round" transform="translate(652 430) rotate(0 1 3.5)"><path d="M0 0 L2 0 L2 7 L0 7" stroke="none" stroke-width="0" fill="#669df6"></path><path d="M0 0 C0.71 0, 1.43 0, 2 0 M0 0 C0.64 0, 1.29 0, 2 0 M2 0 C2 1.69, 2 3.38, 2 7 M2 0 C2 2.06, 2 4.12, 2 7 M2 7 C1.41 7, 0.81 7, 0 7 M2 7 C1.5 7, 1 7, 0 7 M0 7 C0 4.96, 0 2.92, 0 0 M0 7 C0 5.32, 0 3.64, 0 0" stroke="transparent" stroke-width="1" fill="none"></path></g><g stroke-linecap="round" transform="translate(656 433) rotate(0 3 0.5)"><path d="M0 0 L6 0 L6 1 L0 1" stroke="none" stroke-width="0" fill="#fff"></path><path d="M0 0 C1.67 0, 3.34 0, 6 0 M0 0 C1.48 0, 2.95 0, 6 0 M6 0 C6 0.27, 6 0.55, 6 1 M6 0 C6 0.31, 6 0.63, 6 1 M6 1 C4.71 1, 3.42 1, 0 1 M6 1 C4.74 1, 3.48 1, 0 1 M0 1 C0 0.68, 0 0.36, 0 0 M0 1 C0 0.6, 0 0.21, 0 0" stroke="transparent" stroke-width="1" fill="none"></path></g><g stroke-linecap="round" transform="translate(665 432) rotate(0 1.5 1.5)"><path d="M0.3 0 L3 0.3 L2.7 3 L0 2.7 L0.3 0" stroke="none" stroke-width="0" fill="#fff"></path><path d="M0.3 0 M0.3 0 C0.89 0, 1.48 0, 2.7 0 M0.3 0 C0.79 0, 1.27 0, 2.7 0 M2.7 0 C2.9 0, 3 0.1, 3 0.3 M2.7 0 C2.9 0, 3 0.1, 3 0.3 M3 0.3 C3 1.05, 3 1.81, 3 2.7 M3 0.3 C3 0.95, 3 1.59, 3 2.7 M3 2.7 C3 2.9, 2.9 3, 2.7 3 M3 2.7 C3 2.9, 2.9 3, 2.7 3 M2.7 3 C2.2 3, 1.69 3, 0.3 3 M2.7 3 C2.06 3, 1.42 3, 0.3 3 M0.3 3 C0.1 3, 0 2.9, 0 2.7 M0.3 3 C0.1 3, 0 2.9, 0 2.7 M0 2.7 C0 1.75, 0 0.8, 0 0.3 M0 2.7 C0 1.96, 0 1.21, 0 0.3 M0 0.3 C0 0.1, 0.1 0, 0.3 0 M0 0.3 C0 0.1, 0.1 0, 0.3 0" stroke="transparent" stroke-width="1" fill="none"></path></g><g stroke-linecap="round" transform="translate(652 439) rotate(0 10 3.5)"><path d="M0 0 L20 0 L20 7 L0 7" stroke="none" stroke-width="0" fill="#aecbfa"></path><path d="M0 0 C6.76 0, 13.53 0, 20 0 M0 0 C5.54 0, 11.07 0, 20 0 M20 0 C20 2.72, 20 5.43, 20 7 M20 0 C20 2.78, 20 5.55, 20 7 M20 7 C15.95 7, 11.91 7, 0 7 M20 7 C13.07 7, 6.15 7, 0 7 M0 7 C0 5.51, 0 4.02, 0 0 M0 7 C0 4.72, 0 2.44, 0 0" stroke="transparent" stroke-width="1" fill="none"></path></g><g stroke-linecap="round" transform="translate(670 439) rotate(0 1 3.5)"><path d="M0 0 L2 0 L2 7 L0 7" stroke="none" stroke-width="0" fill="#669df6"></path><path d="M0 0 C0.74 0, 1.49 0, 2 0 M0 0 C0.46 0, 0.91 0, 2 0 M2 0 C2 2.51, 2 5.02, 2 7 M2 0 C2 2.15, 2 4.3, 2 7 M2 7 C1.26 7, 0.52 7, 0 7 M2 7 C1.37 7, 0.74 7, 0 7 M0 7 C0 5.14, 0 3.28, 0 0 M0 7 C0 4.9, 0 2.79, 0 0" stroke="transparent" stroke-width="1" fill="none"></path></g><g stroke-linecap="round"><g transform="translate(672 439) rotate(0 -1 3.5)" fill-rule="evenodd"><path d="M0 0 L-2 0 L-2 7 L0 0 L0 0" stroke="none" stroke-width="0" fill="#4285f4" fill-rule="evenodd"></path><path d="M0 0 C-0.69 0, -1.38 0, -2 0 M0 0 C-0.61 0, -1.22 0, -2 0 M-2 0 C-2 1.81, -2 3.63, -2 7 M-2 0 C-2 1.89, -2 3.79, -2 7 M-2 7 C-1.57 5.51, -1.15 4.02, 0 0 M-2 7 C-1.47 5.13, -0.93 3.27, 0 0 M0 0 C0 0, 0 0, 0 0 M0 0 C0 0, 0 0, 0 0 M0 0 C0 0, 0 0, 0 0 M0 0 C0 0, 0 0, 0 0" stroke="#00000000" stroke-width="1" fill="none"></path></g></g><g stroke-linecap="round" transform="translate(652 439) rotate(0 1 3.5)"><path d="M0 0 L2 0 L2 7 L0 7" stroke="none" stroke-width="0" fill="#669df6"></path><path d="M0 0 C0.41 0, 0.82 0, 2 0 M0 0 C0.56 0, 1.11 0, 2 0 M2 0 C2 2.12, 2 4.25, 2 7 M2 0 C2 1.61, 2 3.23, 2 7 M2 7 C1.46 7, 0.91 7, 0 7 M2 7 C1.36 7, 0.72 7, 0 7 M0 7 C0 4.41, 0 1.81, 0 0 M0 7 C0 4.76, 0 2.52, 0 0" stroke="transparent" stroke-width="1" fill="none"></path></g><g stroke-linecap="round" transform="translate(656 442) rotate(0 3 0.5)"><path d="M0 0 L6 0 L6 1 L0 1" stroke="none" stroke-width="0" fill="#fff"></path><path d="M0 0 C2.05 0, 4.11 0, 6 0 M0 0 C1.97 0, 3.95 0, 6 0 M6 0 C6 0.34, 6 0.68, 6 1 M6 0 C6 0.29, 6 0.58, 6 1 M6 1 C4.46 1, 2.91 1, 0 1 M6 1 C3.71 1, 1.42 1, 0 1 M0 1 C0 0.8, 0 0.59, 0 0 M0 1 C0 0.72, 0 0.45, 0 0" stroke="transparent" stroke-width="1" fill="none"></path></g><g stroke-linecap="round" transform="translate(665 441) rotate(0 1.5 1.5)"><path d="M0.3 0 L3 0.3 L2.7 3 L0 2.7 L0.3 0" stroke="none" stroke-width="0" fill="#fff"></path><path d="M0.3 0 M0.3 0 C1.09 0, 1.88 0, 2.7 0 M0.3 0 C1.23 0, 2.16 0, 2.7 0 M2.7 0 C2.9 0, 3 0.1, 3 0.3 M2.7 0 C2.9 0, 3 0.1, 3 0.3 M3 0.3 C3 1, 3 1.7, 3 2.7 M3 0.3 C3 0.79, 3 1.27, 3 2.7 M3 2.7 C3 2.9, 2.9 3, 2.7 3 M3 2.7 C3 2.9, 2.9 3, 2.7 3 M2.7 3 C1.78 3, 0.87 3, 0.3 3 M2.7 3 C2.19 3, 1.68 3, 0.3 3 M0.3 3 C0.1 3, 0 2.9, 0 2.7 M0.3 3 C0.1 3, 0 2.9, 0 2.7 M0 2.7 C0 2.04, 0 1.38, 0 0.3 M0 2.7 C0 2.1, 0 1.5, 0 0.3 M0 0.3 C0 0.1, 0.1 0, 0.3 0 M0 0.3 C0 0.1, 0.1 0, 0.3 0" stroke="transparent" stroke-width="1" fill="none"></path></g><g stroke-linecap="round" transform="translate(450 550) rotate(0 120 30)"><path d="M6 0 L236.63 0.38 L238.5 1.5 L240 6 L239.63 56.63 L238.5 58.5 L234 60 L3.38 59.63 L1.5 58.5 L0 54 L0 6 L1.5 1.5 L6 0" stroke="none" stroke-width="0" fill="#FFF"></path><path d="M6 0 M6 0 C83.42 0, 160.84 0, 234 0 M6 0 C88.85 0, 171.69 0, 234 0 M234 0 C238 0, 240 2, 240 6 M234 0 C238 0, 240 2, 240 6 M240 6 C240 17.59, 240 29.17, 240 54 M240 6 C240 23.78, 240 41.56, 240 54 M240 54 C240 58, 238 60, 234 60 M240 54 C240 58, 238 60, 234 60 M234 60 C155.26 60, 76.52 60, 6 60 M234 60 C162.29 60, 90.58 60, 6 60 M6 60 C2 60, 0 58, 0 54 M6 60 C2 60, 0 58, 0 54 M0 54 C0 37.93, 0 21.85, 0 6 M0 54 C0 40.38, 0 26.75, 0 6 M0 6 C0 2, 2 0, 6 0 M0 6 C0 2, 2 0, 6 0" stroke="#202124" stroke-width="1" fill="none"></path></g><g transform="translate(466 566) rotate(0 58.5 9.5)"><text x="0" y="15" font-family="Helvetica, Segoe UI Emoji" font-size="16px" fill="#1A73E8" text-anchor="start" style="white-space: pre;" direction="ltr">Cloud Functions</text></g><g stroke-linecap="round"><g transform="translate(651.3598774671555 581.7378263473511) rotate(0 1.591424286365509 -3.7764174938201904)" fill-rule="evenodd"><path d="M0 0 L3.18 2.59 L3.18 -10.14 L0 -7.56 L0 0" stroke="none" stroke-width="0" fill="#669df6" fill-rule="evenodd"></path><path d="M0 0 C0.8 0.65, 1.6 1.3, 3.18 2.59 M0 0 C0.66 0.54, 1.32 1.07, 3.18 2.59 M3.18 2.59 C3.18 0.03, 3.18 -2.52, 3.18 -10.14 M3.18 2.59 C3.18 -1.75, 3.18 -6.1, 3.18 -10.14 M3.18 -10.14 C2.2 -9.35, 1.22 -8.55, 0 -7.56 M3.18 -10.14 C2.18 -9.33, 1.17 -8.51, 0 -7.56 M0 -7.56 C0 -5.58, 0 -3.61, 0 0 M0 -7.56 C0 -5.95, 0 -4.33, 0 0 M0 0 C0 0, 0 0, 0 0 M0 0 C0 0, 0 0, 0 0" stroke="#00000000" stroke-width="1" fill="none"></path></g></g><g stroke-linecap="round"><g transform="translate(651.3598774671555 575.8388977050781) rotate(0 1.591424286365509 -2.120673894882202)" fill-rule="evenodd"><path d="M0 0 L3.18 -2.12 L3.18 -4.24 L0 0" stroke="none" stroke-width="0" fill="#4285f4" fill-rule="evenodd"></path><path d="M0 0 C0.76 -0.5, 1.51 -1.01, 3.18 -2.12 M0 0 C1.18 -0.78, 2.35 -1.57, 3.18 -2.12 M3.18 -2.12 C3.18 -2.55, 3.18 -2.99, 3.18 -4.24 M3.18 -2.12 C3.18 -2.67, 3.18 -3.23, 3.18 -4.24 M3.18 -4.24 C1.93 -2.57, 0.67 -0.9, 0 0 M3.18 -4.24 C2.46 -3.28, 1.73 -2.31, 0 0 M0 0 C0 0, 0 0, 0 0 M0 0 C0 0, 0 0, 0 0" stroke="#00000000" stroke-width="1" fill="none"></path></g></g><g stroke-linecap="round"><g transform="translate(654.5427260398865 584.325267791748) rotate(0 -1.591424286365509 -2.122511386871338)" fill-rule="evenodd"><path d="M0 0 L0 -2.12 L-3.18 -4.25 L0 0" stroke="none" stroke-width="0" fill="#4285f4" fill-rule="evenodd"></path><path d="M0 0 C0 -0.49, 0 -0.97, 0 -2.12 M0 0 C0 -0.61, 0 -1.21, 0 -2.12 M0 -2.12 C-1.08 -2.84, -2.16 -3.56, -3.18 -4.25 M0 -2.12 C-1.01 -2.8, -2.02 -3.47, -3.18 -4.25 M-3.18 -4.25 C-2.41 -3.22, -1.65 -2.2, 0 0 M-3.18 -4.25 C-2.44 -3.26, -1.7 -2.27, 0 0 M0 0 C0 0, 0 0, 0 0 M0 0 C0 0, 0 0, 0 0" stroke="#00000000" stroke-width="1" fill="none"></path></g></g><g stroke-linecap="round"><g transform="translate(657.7218990325928 586.4459419250488) rotate(0 -3.1810107827186584 -2.122511386871338)" fill-rule="evenodd"><path d="M0 0 L-6.36 -6.37 L-6.36 -2.12 L-2.12 2.12 L0 0" stroke="none" stroke-width="0" fill="#aecbfa" fill-rule="evenodd"></path><path d="M0 0 C-2.25 -2.25, -4.5 -4.5, -6.36 -6.37 M0 0 C-2.52 -2.52, -5.04 -5.05, -6.36 -6.37 M-6.36 -6.37 C-6.36 -5.39, -6.36 -4.42, -6.36 -2.12 M-6.36 -6.37 C-6.36 -4.95, -6.36 -3.53, -6.36 -2.12 M-6.36 -2.12 C-5.33 -1.09, -4.29 -0.05, -2.12 2.12 M-6.36 -2.12 C-4.69 -0.45, -3.02 1.22, -2.12 2.12 M-2.12 2.12 C-1.41 1.41, -0.69 0.69, 0 0 M-2.12 2.12 C-1.55 1.55, -0.98 0.98, 0 0 M0 0 C0 0, 0 0, 0 0 M0 0 C0 0, 0 0, 0 0" stroke="#00000000" stroke-width="1" fill="none"></path></g></g><g stroke-linecap="round"><g transform="translate(655.59019947052 567.367228269577) rotate(0 -1.0529866814613342 4.235834717750549)" fill-rule="evenodd"><path d="M0 0 L-4.23 4.23 L-4.22 8.47 L2.12 2.12 L0 0" stroke="none" stroke-width="0" fill="#aecbfa" fill-rule="evenodd"></path><path d="M0 0 C-1.45 1.45, -2.9 2.9, -4.23 4.23 M0 0 C-1.31 1.31, -2.61 2.61, -4.23 4.23 M-4.23 4.23 C-4.23 5.84, -4.22 7.46, -4.22 8.47 M-4.23 4.23 C-4.23 5.11, -4.23 5.98, -4.22 8.47 M-4.22 8.47 C-2.32 6.57, -0.42 4.67, 2.12 2.12 M-4.22 8.47 C-2.74 7, -1.27 5.52, 2.12 2.12 M2.12 2.12 C1.5 1.5, 0.88 0.87, 0 0 M2.12 2.12 C1.31 1.3, 0.49 0.49, 0 0 M0 0 C0 0, 0 0, 0 0 M0 0 C0 0, 0 0, 0 0" stroke="#00000000" stroke-width="1" fill="none"></path></g></g><g stroke-linecap="round"><g transform="translate(672.5702896118164 574.1960182189941) rotate(0 -1.5895862579345703 3.7764170169830322)" fill-rule="evenodd"><path d="M0 0 L-3.18 -2.59 L-3.18 10.14 L0 7.57 L0 0" stroke="none" stroke-width="0" fill="#669df6" fill-rule="evenodd"></path><path d="M0 0 C-0.92 -0.75, -1.85 -1.51, -3.18 -2.59 M0 0 C-1.05 -0.85, -2.09 -1.7, -3.18 -2.59 M-3.18 -2.59 C-3.18 2.22, -3.18 7.02, -3.18 10.14 M-3.18 -2.59 C-3.18 1.17, -3.18 4.92, -3.18 10.14 M-3.18 10.14 C-2.03 9.21, -0.88 8.28, 0 7.57 M-3.18 10.14 C-2.37 9.49, -1.56 8.83, 0 7.57 M0 7.57 C0 4.67, 0 1.78, 0 0 M0 7.57 C0 4.99, 0 2.4, 0 0 M0 0 C0 0, 0 0, 0 0 M0 0 C0 0, 0 0, 0 0" stroke="#00000000" stroke-width="1" fill="none"></path></g></g><g stroke-linecap="round"><g transform="translate(672.5702896118164 580.0912704467773) rotate(0 -1.5895862579345703 2.122511863708496)" fill-rule="evenodd"><path d="M0 0 L-3.18 2.12 L-3.18 4.25 L0 0" stroke="none" stroke-width="0" fill="#4285f4" fill-rule="evenodd"></path><path d="M0 0 C-1.08 0.72, -2.17 1.45, -3.18 2.12 M0 0 C-0.79 0.53, -1.58 1.06, -3.18 2.12 M-3.18 2.12 C-3.18 2.77, -3.18 3.42, -3.18 4.25 M-3.18 2.12 C-3.18 2.81, -3.18 3.49, -3.18 4.25 M-3.18 4.25 C-2.3 3.07, -1.42 1.89, 0 0 M-3.18 4.25 C-2.1 2.8, -1.01 1.35, 0 0 M0 0 C0 0, 0 0, 0 0 M0 0 C0 0, 0 0, 0 0" stroke="#00000000" stroke-width="1" fill="none"></path></g></g><g stroke-linecap="round"><g transform="translate(669.3911170959473 571.60857629776) rotate(0 1.5895862579345703 2.120673418045044)" fill-rule="evenodd"><path d="M0 0 L0 2.12 L3.18 4.24 L0 0" stroke="none" stroke-width="0" fill="#4285f4" fill-rule="evenodd"></path><path d="M0 0 C0 0.77, 0 1.54, 0 2.12 M0 0 C0 0.61, 0 1.22, 0 2.12 M0 2.12 C0.72 2.6, 1.44 3.08, 3.18 4.24 M0 2.12 C0.64 2.55, 1.29 2.98, 3.18 4.24 M3.18 4.24 C2.36 3.15, 1.54 2.05, 0 0 M3.18 4.24 C1.95 2.6, 0.72 0.95, 0 0 M0 0 C0 0, 0 0, 0 0 M0 0 C0 0, 0 0, 0 0" stroke="#00000000" stroke-width="1" fill="none"></path></g></g><g stroke-linecap="round"><g transform="translate(666.2082691192627 569.4879021644592) rotate(0 3.1810102462768555 2.1206735372543335)" fill-rule="evenodd"><path d="M0 0 L6.36 6.36 L6.36 2.12 L2.12 -2.12 L0 0" stroke="none" stroke-width="0" fill="#aecbfa" fill-rule="evenodd"></path><path d="M0 0 C1.66 1.66, 3.32 3.32, 6.36 6.36 M0 0 C2.01 2.01, 4.02 4.02, 6.36 6.36 M6.36 6.36 C6.36 5.01, 6.36 3.65, 6.36 2.12 M6.36 6.36 C6.36 4.96, 6.36 3.57, 6.36 2.12 M6.36 2.12 C5.41 1.17, 4.46 0.22, 2.12 -2.12 M6.36 2.12 C4.88 0.64, 3.4 -0.84, 2.12 -2.12 M2.12 -2.12 C1.46 -1.46, 0.81 -0.81, 0 0 M2.12 -2.12 C1.58 -1.58, 1.05 -1.05, 0 0 M0 0 C0 0, 0 0, 0 0 M0 0 C0 0, 0 0, 0 0" stroke="#00000000" stroke-width="1" fill="none"></path></g></g><g stroke-linecap="round"><g transform="translate(668.3399696350098 588.5666160583496) rotate(0 1.0548229217529297 -4.237672805786133)" fill-rule="evenodd"><path d="M0 0 L4.23 -4.23 L4.22 -8.48 L-2.12 -2.12 L0 0" stroke="none" stroke-width="0" fill="#aecbfa" fill-rule="evenodd"></path><path d="M0 0 C1.2 -1.2, 2.4 -2.4, 4.23 -4.23 M0 0 C1.69 -1.69, 3.38 -3.38, 4.23 -4.23 M4.23 -4.23 C4.23 -5.77, 4.22 -7.32, 4.22 -8.48 M4.23 -4.23 C4.23 -5.33, 4.22 -6.43, 4.22 -8.48 M4.22 -8.48 C1.87 -6.12, -0.48 -3.77, -2.12 -2.12 M4.22 -8.48 C2.02 -6.27, -0.17 -4.07, -2.12 -2.12 M-2.12 -2.12 C-1.45 -1.45, -0.79 -0.79, 0 0 M-2.12 -2.12 C-1.59 -1.59, -1.05 -1.05, 0 0 M0 0 C0 0, 0 0, 0 0 M0 0 C0 0, 0 0, 0 0" stroke="#00000000" stroke-width="1" fill="none"></path></g></g><g stroke-linecap="round" transform="translate(656.6597242355347 576.8973970413208) rotate(0 1.0621745586395264 1.0621745586395264)"><path d="M2.12 1.06 C2.12 1.12, 2.12 1.19, 2.11 1.25 C2.1 1.31, 2.08 1.37, 2.06 1.43 C2.04 1.48, 2.01 1.54, 1.98 1.59 C1.95 1.65, 1.92 1.7, 1.88 1.74 C1.84 1.79, 1.79 1.84, 1.74 1.88 C1.7 1.92, 1.65 1.95, 1.59 1.98 C1.54 2.01, 1.48 2.04, 1.43 2.06 C1.37 2.08, 1.31 2.1, 1.25 2.11 C1.19 2.12, 1.12 2.12, 1.06 2.12 C1 2.12, 0.94 2.12, 0.88 2.11 C0.82 2.1, 0.76 2.08, 0.7 2.06 C0.64 2.04, 0.58 2.01, 0.53 1.98 C0.48 1.95, 0.43 1.92, 0.38 1.88 C0.33 1.84, 0.29 1.79, 0.25 1.74 C0.21 1.7, 0.17 1.65, 0.14 1.59 C0.11 1.54, 0.09 1.48, 0.06 1.43 C0.04 1.37, 0.03 1.31, 0.02 1.25 C0.01 1.19, 0 1.12, 0 1.06 C0 1, 0.01 0.94, 0.02 0.88 C0.03 0.82, 0.04 0.76, 0.06 0.7 C0.09 0.64, 0.11 0.58, 0.14 0.53 C0.17 0.48, 0.21 0.43, 0.25 0.38 C0.29 0.33, 0.33 0.29, 0.38 0.25 C0.43 0.21, 0.48 0.17, 0.53 0.14 C0.58 0.11, 0.64 0.09, 0.7 0.06 C0.76 0.04, 0.82 0.03, 0.88 0.02 C0.94 0.01, 1 0, 1.06 0 C1.12 0, 1.19 0.01, 1.25 0.02 C1.31 0.03, 1.37 0.04, 1.43 0.06 C1.48 0.09, 1.54 0.11, 1.59 0.14 C1.65 0.17, 1.7 0.21, 1.74 0.25 C1.79 0.29, 1.84 0.33, 1.88 0.38 C1.92 0.43, 1.95 0.48, 1.98 0.53 C2.01 0.58, 2.04 0.64, 2.06 0.7 C2.08 0.76, 2.1 0.82, 2.11 0.88 C2.12 0.94, 2.12 1.03, 2.12 1.06 C2.13 1.09, 2.13 1.03, 2.12 1.06" stroke="none" stroke-width="0" fill="#aecbfa"></path><path d="M2.12 1.06 C2.12 1.12, 2.12 1.19, 2.11 1.25 C2.1 1.31, 2.08 1.37, 2.06 1.43 C2.04 1.48, 2.01 1.54, 1.98 1.59 C1.95 1.65, 1.92 1.7, 1.88 1.74 C1.84 1.79, 1.79 1.84, 1.74 1.88 C1.7 1.92, 1.65 1.95, 1.59 1.98 C1.54 2.01, 1.48 2.04, 1.43 2.06 C1.37 2.08, 1.31 2.1, 1.25 2.11 C1.19 2.12, 1.12 2.12, 1.06 2.12 C1 2.12, 0.94 2.12, 0.88 2.11 C0.82 2.1, 0.76 2.08, 0.7 2.06 C0.64 2.04, 0.58 2.01, 0.53 1.98 C0.48 1.95, 0.43 1.92, 0.38 1.88 C0.33 1.84, 0.29 1.79, 0.25 1.74 C0.21 1.7, 0.17 1.65, 0.14 1.59 C0.11 1.54, 0.09 1.48, 0.06 1.43 C0.04 1.37, 0.03 1.31, 0.02 1.25 C0.01 1.19, 0 1.12, 0 1.06 C0 1, 0.01 0.94, 0.02 0.88 C0.03 0.82, 0.04 0.76, 0.06 0.7 C0.09 0.64, 0.11 0.58, 0.14 0.53 C0.17 0.48, 0.21 0.43, 0.25 0.38 C0.29 0.33, 0.33 0.29, 0.38 0.25 C0.43 0.21, 0.48 0.17, 0.53 0.14 C0.58 0.11, 0.64 0.09, 0.7 0.06 C0.76 0.04, 0.82 0.03, 0.88 0.02 C0.94 0.01, 1 0, 1.06 0 C1.12 0, 1.19 0.01, 1.25 0.02 C1.31 0.03, 1.37 0.04, 1.43 0.06 C1.48 0.09, 1.54 0.11, 1.59 0.14 C1.65 0.17, 1.7 0.21, 1.74 0.25 C1.79 0.29, 1.84 0.33, 1.88 0.38 C1.92 0.43, 1.95 0.48, 1.98 0.53 C2.01 0.58, 2.04 0.64, 2.06 0.7 C2.08 0.76, 2.1 0.82, 2.11 0.88 C2.12 0.94, 2.12 1.03, 2.12 1.06 C2.13 1.09, 2.13 1.03, 2.12 1.06" stroke="transparent" stroke-width="1" fill="none"></path></g><g stroke-linecap="round" transform="translate(660.9047479629517 576.8973970413208) rotate(0 1.0621745586395264 1.0621745586395264)"><path d="M2.12 1.06 C2.12 1.12, 2.12 1.19, 2.11 1.25 C2.1 1.31, 2.08 1.37, 2.06 1.43 C2.04 1.48, 2.01 1.54, 1.98 1.59 C1.95 1.65, 1.92 1.7, 1.88 1.74 C1.84 1.79, 1.79 1.84, 1.74 1.88 C1.7 1.92, 1.65 1.95, 1.59 1.98 C1.54 2.01, 1.48 2.04, 1.43 2.06 C1.37 2.08, 1.31 2.1, 1.25 2.11 C1.19 2.12, 1.12 2.12, 1.06 2.12 C1 2.12, 0.94 2.12, 0.88 2.11 C0.82 2.1, 0.76 2.08, 0.7 2.06 C0.64 2.04, 0.58 2.01, 0.53 1.98 C0.48 1.95, 0.43 1.92, 0.38 1.88 C0.33 1.84, 0.29 1.79, 0.25 1.74 C0.21 1.7, 0.17 1.65, 0.14 1.59 C0.11 1.54, 0.09 1.48, 0.06 1.43 C0.04 1.37, 0.03 1.31, 0.02 1.25 C0.01 1.19, 0 1.12, 0 1.06 C0 1, 0.01 0.94, 0.02 0.88 C0.03 0.82, 0.04 0.76, 0.06 0.7 C0.09 0.64, 0.11 0.58, 0.14 0.53 C0.17 0.48, 0.21 0.43, 0.25 0.38 C0.29 0.33, 0.33 0.29, 0.38 0.25 C0.43 0.21, 0.48 0.17, 0.53 0.14 C0.58 0.11, 0.64 0.09, 0.7 0.06 C0.76 0.04, 0.82 0.03, 0.88 0.02 C0.94 0.01, 1 0, 1.06 0 C1.12 0, 1.19 0.01, 1.25 0.02 C1.31 0.03, 1.37 0.04, 1.43 0.06 C1.48 0.09, 1.54 0.11, 1.59 0.14 C1.65 0.17, 1.7 0.21, 1.74 0.25 C1.79 0.29, 1.84 0.33, 1.88 0.38 C1.92 0.43, 1.95 0.48, 1.98 0.53 C2.01 0.58, 2.04 0.64, 2.06 0.7 C2.08 0.76, 2.1 0.82, 2.11 0.88 C2.12 0.94, 2.12 1.03, 2.12 1.06 C2.13 1.09, 2.13 1.03, 2.12 1.06" stroke="none" stroke-width="0" fill="#aecbfa"></path><path d="M2.12 1.06 C2.12 1.12, 2.12 1.19, 2.11 1.25 C2.1 1.31, 2.08 1.37, 2.06 1.43 C2.04 1.48, 2.01 1.54, 1.98 1.59 C1.95 1.65, 1.92 1.7, 1.88 1.74 C1.84 1.79, 1.79 1.84, 1.74 1.88 C1.7 1.92, 1.65 1.95, 1.59 1.98 C1.54 2.01, 1.48 2.04, 1.43 2.06 C1.37 2.08, 1.31 2.1, 1.25 2.11 C1.19 2.12, 1.12 2.12, 1.06 2.12 C1 2.12, 0.94 2.12, 0.88 2.11 C0.82 2.1, 0.76 2.08, 0.7 2.06 C0.64 2.04, 0.58 2.01, 0.53 1.98 C0.48 1.95, 0.43 1.92, 0.38 1.88 C0.33 1.84, 0.29 1.79, 0.25 1.74 C0.21 1.7, 0.17 1.65, 0.14 1.59 C0.11 1.54, 0.09 1.48, 0.06 1.43 C0.04 1.37, 0.03 1.31, 0.02 1.25 C0.01 1.19, 0 1.12, 0 1.06 C0 1, 0.01 0.94, 0.02 0.88 C0.03 0.82, 0.04 0.76, 0.06 0.7 C0.09 0.64, 0.11 0.58, 0.14 0.53 C0.17 0.48, 0.21 0.43, 0.25 0.38 C0.29 0.33, 0.33 0.29, 0.38 0.25 C0.43 0.21, 0.48 0.17, 0.53 0.14 C0.58 0.11, 0.64 0.09, 0.7 0.06 C0.76 0.04, 0.82 0.03, 0.88 0.02 C0.94 0.01, 1 0, 1.06 0 C1.12 0, 1.19 0.01, 1.25 0.02 C1.31 0.03, 1.37 0.04, 1.43 0.06 C1.48 0.09, 1.54 0.11, 1.59 0.14 C1.65 0.17, 1.7 0.21, 1.74 0.25 C1.79 0.29, 1.84 0.33, 1.88 0.38 C1.92 0.43, 1.95 0.48, 1.98 0.53 C2.01 0.58, 2.04 0.64, 2.06 0.7 C2.08 0.76, 2.1 0.82, 2.11 0.88 C2.12 0.94, 2.12 1.03, 2.12 1.06 C2.13 1.09, 2.13 1.03, 2.12 1.06" stroke="transparent" stroke-width="1" fill="none"></path></g><g stroke-linecap="round" transform="translate(665.1350688934326 576.8973970413208) rotate(0 1.0621745586395264 1.0621745586395264)"><path d="M2.12 1.06 C2.12 1.12, 2.12 1.19, 2.11 1.25 C2.1 1.31, 2.08 1.37, 2.06 1.43 C2.04 1.48, 2.01 1.54, 1.98 1.59 C1.95 1.65, 1.92 1.7, 1.88 1.74 C1.84 1.79, 1.79 1.84, 1.74 1.88 C1.7 1.92, 1.65 1.95, 1.59 1.98 C1.54 2.01, 1.48 2.04, 1.43 2.06 C1.37 2.08, 1.31 2.1, 1.25 2.11 C1.19 2.12, 1.12 2.12, 1.06 2.12 C1 2.12, 0.94 2.12, 0.88 2.11 C0.82 2.1, 0.76 2.08, 0.7 2.06 C0.64 2.04, 0.58 2.01, 0.53 1.98 C0.48 1.95, 0.43 1.92, 0.38 1.88 C0.33 1.84, 0.29 1.79, 0.25 1.74 C0.21 1.7, 0.17 1.65, 0.14 1.59 C0.11 1.54, 0.09 1.48, 0.06 1.43 C0.04 1.37, 0.03 1.31, 0.02 1.25 C0.01 1.19, 0 1.12, 0 1.06 C0 1, 0.01 0.94, 0.02 0.88 C0.03 0.82, 0.04 0.76, 0.06 0.7 C0.09 0.64, 0.11 0.58, 0.14 0.53 C0.17 0.48, 0.21 0.43, 0.25 0.38 C0.29 0.33, 0.33 0.29, 0.38 0.25 C0.43 0.21, 0.48 0.17, 0.53 0.14 C0.58 0.11, 0.64 0.09, 0.7 0.06 C0.76 0.04, 0.82 0.03, 0.88 0.02 C0.94 0.01, 1 0, 1.06 0 C1.12 0, 1.19 0.01, 1.25 0.02 C1.31 0.03, 1.37 0.04, 1.43 0.06 C1.48 0.09, 1.54 0.11, 1.59 0.14 C1.65 0.17, 1.7 0.21, 1.74 0.25 C1.79 0.29, 1.84 0.33, 1.88 0.38 C1.92 0.43, 1.95 0.48, 1.98 0.53 C2.01 0.58, 2.04 0.64, 2.06 0.7 C2.08 0.76, 2.1 0.82, 2.11 0.88 C2.12 0.94, 2.12 1.03, 2.12 1.06 C2.13 1.09, 2.13 1.03, 2.12 1.06" stroke="none" stroke-width="0" fill="#aecbfa"></path><path d="M2.12 1.06 C2.12 1.12, 2.12 1.19, 2.11 1.25 C2.1 1.31, 2.08 1.37, 2.06 1.43 C2.04 1.48, 2.01 1.54, 1.98 1.59 C1.95 1.65, 1.92 1.7, 1.88 1.74 C1.84 1.79, 1.79 1.84, 1.74 1.88 C1.7 1.92, 1.65 1.95, 1.59 1.98 C1.54 2.01, 1.48 2.04, 1.43 2.06 C1.37 2.08, 1.31 2.1, 1.25 2.11 C1.19 2.12, 1.12 2.12, 1.06 2.12 C1 2.12, 0.94 2.12, 0.88 2.11 C0.82 2.1, 0.76 2.08, 0.7 2.06 C0.64 2.04, 0.58 2.01, 0.53 1.98 C0.48 1.95, 0.43 1.92, 0.38 1.88 C0.33 1.84, 0.29 1.79, 0.25 1.74 C0.21 1.7, 0.17 1.65, 0.14 1.59 C0.11 1.54, 0.09 1.48, 0.06 1.43 C0.04 1.37, 0.03 1.31, 0.02 1.25 C0.01 1.19, 0 1.12, 0 1.06 C0 1, 0.01 0.94, 0.02 0.88 C0.03 0.82, 0.04 0.76, 0.06 0.7 C0.09 0.64, 0.11 0.58, 0.14 0.53 C0.17 0.48, 0.21 0.43, 0.25 0.38 C0.29 0.33, 0.33 0.29, 0.38 0.25 C0.43 0.21, 0.48 0.17, 0.53 0.14 C0.58 0.11, 0.64 0.09, 0.7 0.06 C0.76 0.04, 0.82 0.03, 0.88 0.02 C0.94 0.01, 1 0, 1.06 0 C1.12 0, 1.19 0.01, 1.25 0.02 C1.31 0.03, 1.37 0.04, 1.43 0.06 C1.48 0.09, 1.54 0.11, 1.59 0.14 C1.65 0.17, 1.7 0.21, 1.74 0.25 C1.79 0.29, 1.84 0.33, 1.88 0.38 C1.92 0.43, 1.95 0.48, 1.98 0.53 C2.01 0.58, 2.04 0.64, 2.06 0.7 C2.08 0.76, 2.1 0.82, 2.11 0.88 C2.12 0.94, 2.12 1.03, 2.12 1.06 C2.13 1.09, 2.13 1.03, 2.12 1.06" stroke="transparent" stroke-width="1" fill="none"></path></g><g stroke-linecap="round" transform="translate(450 690) rotate(0 120 30)"><path d="M6 0 L236.63 0.38 L238.5 1.5 L240 6 L239.63 56.63 L238.5 58.5 L234 60 L3.38 59.63 L1.5 58.5 L0 54 L0 6 L1.5 1.5 L6 0" stroke="none" stroke-width="0" fill="#FFF"></path><path d="M6 0 M6 0 C82.64 0, 159.29 0, 234 0 M6 0 C75.98 0, 145.96 0, 234 0 M234 0 C238 0, 240 2, 240 6 M234 0 C238 0, 240 2, 240 6 M240 6 C240 21.75, 240 37.5, 240 54 M240 6 C240 16.03, 240 26.07, 240 54 M240 54 C240 58, 238 60, 234 60 M240 54 C240 58, 238 60, 234 60 M234 60 C145.53 60, 57.07 60, 6 60 M234 60 C144.14 60, 54.28 60, 6 60 M6 60 C2 60, 0 58, 0 54 M6 60 C2 60, 0 58, 0 54 M0 54 C0 35.01, 0 16.03, 0 6 M0 54 C0 42.73, 0 31.45, 0 6 M0 6 C0 2, 2 0, 6 0 M0 6 C0 2, 2 0, 6 0" stroke="#202124" stroke-width="1" fill="none"></path></g><g transform="translate(466 706) rotate(0 51.5 9.5)"><text x="0" y="15" font-family="Helvetica, Segoe UI Emoji" font-size="16px" fill="#1A73E8" text-anchor="start" style="white-space: pre;" direction="ltr">Cloud Storage</text></g><g stroke-linecap="round" transform="translate(652 710) rotate(0 10 3.5)"><path d="M0 0 L20 0 L20 7 L0 7" stroke="none" stroke-width="0" fill="#aecbfa"></path><path d="M0 0 C5.48 0, 10.95 0, 20 0 M0 0 C4.31 0, 8.62 0, 20 0 M20 0 C20 2.53, 20 5.05, 20 7 M20 0 C20 2.24, 20 4.49, 20 7 M20 7 C15.22 7, 10.45 7, 0 7 M20 7 C12.54 7, 5.08 7, 0 7 M0 7 C0 5.58, 0 4.17, 0 0 M0 7 C0 5, 0 2.99, 0 0" stroke="transparent" stroke-width="1" fill="none"></path></g><g stroke-linecap="round" transform="translate(670 710) rotate(0 1 3.5)"><path d="M0 0 L2 0 L2 7 L0 7" stroke="none" stroke-width="0" fill="#669df6"></path><path d="M0 0 C0.66 0, 1.32 0, 2 0 M0 0 C0.56 0, 1.12 0, 2 0 M2 0 C2 1.4, 2 2.81, 2 7 M2 0 C2 2.25, 2 4.49, 2 7 M2 7 C1.26 7, 0.51 7, 0 7 M2 7 C1.34 7, 0.67 7, 0 7 M0 7 C0 5.57, 0 4.15, 0 0 M0 7 C0 4.41, 0 1.83, 0 0" stroke="transparent" stroke-width="1" fill="none"></path></g><g stroke-linecap="round"><g transform="translate(672 710) rotate(0 -1 3.5)" fill-rule="evenodd"><path d="M0 0 L-2 0 L-2 7 L0 0 L0 0" stroke="none" stroke-width="0" fill="#4285f4" fill-rule="evenodd"></path><path d="M0 0 C-0.73 0, -1.47 0, -2 0 M0 0 C-0.69 0, -1.38 0, -2 0 M-2 0 C-2 2.35, -2 4.71, -2 7 M-2 0 C-2 2.37, -2 4.73, -2 7 M-2 7 C-1.34 4.7, -0.69 2.41, 0 0 M-2 7 C-1.59 5.58, -1.19 4.16, 0 0 M0 0 C0 0, 0 0, 0 0 M0 0 C0 0, 0 0, 0 0 M0 0 C0 0, 0 0, 0 0 M0 0 C0 0, 0 0, 0 0" stroke="#00000000" stroke-width="1" fill="none"></path></g></g><g stroke-linecap="round" transform="translate(652 710) rotate(0 1 3.5)"><path d="M0 0 L2 0 L2 7 L0 7" stroke="none" stroke-width="0" fill="#669df6"></path><path d="M0 0 C0.41 0, 0.82 0, 2 0 M0 0 C0.62 0, 1.24 0, 2 0 M2 0 C2 1.68, 2 3.36, 2 7 M2 0 C2 2.59, 2 5.17, 2 7 M2 7 C1.6 7, 1.19 7, 0 7 M2 7 C1.22 7, 0.44 7, 0 7 M0 7 C0 5.29, 0 3.58, 0 0 M0 7 C0 5.46, 0 3.92, 0 0" stroke="transparent" stroke-width="1" fill="none"></path></g><g stroke-linecap="round" transform="translate(656 713) rotate(0 3 0.5)"><path d="M0 0 L6 0 L6 1 L0 1" stroke="none" stroke-width="0" fill="#fff"></path><path d="M0 0 C2.19 0, 4.37 0, 6 0 M0 0 C1.35 0, 2.71 0, 6 0 M6 0 C6 0.2, 6 0.4, 6 1 M6 0 C6 0.38, 6 0.77, 6 1 M6 1 C4.47 1, 2.93 1, 0 1 M6 1 C4.25 1, 2.5 1, 0 1 M0 1 C0 0.69, 0 0.37, 0 0 M0 1 C0 0.6, 0 0.2, 0 0" stroke="transparent" stroke-width="1" fill="none"></path></g><g stroke-linecap="round" transform="translate(665 712) rotate(0 1.5 1.5)"><path d="M0.3 0 L3 0.3 L2.7 3 L0 2.7 L0.3 0" stroke="none" stroke-width="0" fill="#fff"></path><path d="M0.3 0 M0.3 0 C0.84 0, 1.38 0, 2.7 0 M0.3 0 C1.17 0, 2.03 0, 2.7 0 M2.7 0 C2.9 0, 3 0.1, 3 0.3 M2.7 0 C2.9 0, 3 0.1, 3 0.3 M3 0.3 C3 1.22, 3 2.14, 3 2.7 M3 0.3 C3 0.87, 3 1.45, 3 2.7 M3 2.7 C3 2.9, 2.9 3, 2.7 3 M3 2.7 C3 2.9, 2.9 3, 2.7 3 M2.7 3 C2 3, 1.3 3, 0.3 3 M2.7 3 C2.21 3, 1.73 3, 0.3 3 M0.3 3 C0.1 3, 0 2.9, 0 2.7 M0.3 3 C0.1 3, 0 2.9, 0 2.7 M0 2.7 C0 1.74, 0 0.79, 0 0.3 M0 2.7 C0 1.78, 0 0.85, 0 0.3 M0 0.3 C0 0.1, 0.1 0, 0.3 0 M0 0.3 C0 0.1, 0.1 0, 0.3 0" stroke="transparent" stroke-width="1" fill="none"></path></g><g stroke-linecap="round" transform="translate(652 719) rotate(0 10 3.5)"><path d="M0 0 L20 0 L20 7 L0 7" stroke="none" stroke-width="0" fill="#aecbfa"></path><path d="M0 0 C4.81 0, 9.62 0, 20 0 M0 0 C5 0, 10 0, 20 0 M20 0 C20 2.5, 20 5, 20 7 M20 0 C20 2.61, 20 5.22, 20 7 M20 7 C15.57 7, 11.13 7, 0 7 M20 7 C12.9 7, 5.8 7, 0 7 M0 7 C0 5.23, 0 3.47, 0 0 M0 7 C0 4.53, 0 2.06, 0 0" stroke="transparent" stroke-width="1" fill="none"></path></g><g stroke-linecap="round" transform="translate(670 719) rotate(0 1 3.5)"><path d="M0 0 L2 0 L2 7 L0 7" stroke="none" stroke-width="0" fill="#669df6"></path><path d="M0 0 C0.66 0, 1.32 0, 2 0 M0 0 C0.7 0, 1.41 0, 2 0 M2 0 C2 2.52, 2 5.05, 2 7 M2 0 C2 2.29, 2 4.57, 2 7 M2 7 C1.32 7, 0.64 7, 0 7 M2 7 C1.41 7, 0.81 7, 0 7 M0 7 C0 5.01, 0 3.03, 0 0 M0 7 C0 4.39, 0 1.77, 0 0" stroke="transparent" stroke-width="1" fill="none"></path></g><g stroke-linecap="round"><g transform="translate(672 719) rotate(0 -1 3.5)" fill-rule="evenodd"><path d="M0 0 L-2 0 L-2 7 L0 0 L0 0" stroke="none" stroke-width="0" fill="#4285f4" fill-rule="evenodd"></path><path d="M0 0 C-0.53 0, -1.05 0, -2 0 M0 0 C-0.74 0, -1.47 0, -2 0 M-2 0 C-2 1.51, -2 3.01, -2 7 M-2 0 C-2 1.5, -2 3, -2 7 M-2 7 C-1.49 5.23, -0.99 3.46, 0 0 M-2 7 C-1.52 5.33, -1.05 3.66, 0 0 M0 0 C0 0, 0 0, 0 0 M0 0 C0 0, 0 0, 0 0 M0 0 C0 0, 0 0, 0 0 M0 0 C0 0, 0 0, 0 0" stroke="#00000000" stroke-width="1" fill="none"></path></g></g><g stroke-linecap="round" transform="translate(652 719) rotate(0 1 3.5)"><path d="M0 0 L2 0 L2 7 L0 7" stroke="none" stroke-width="0" fill="#669df6"></path><path d="M0 0 C0.41 0, 0.82 0, 2 0 M0 0 C0.68 0, 1.36 0, 2 0 M2 0 C2 2.15, 2 4.3, 2 7 M2 0 C2 2.57, 2 5.14, 2 7 M2 7 C1.58 7, 1.16 7, 0 7 M2 7 C1.44 7, 0.87 7, 0 7 M0 7 C0 4.24, 0 1.48, 0 0 M0 7 C0 5.2, 0 3.4, 0 0" stroke="transparent" stroke-width="1" fill="none"></path></g><g stroke-linecap="round" transform="translate(656 722) rotate(0 3 0.5)"><path d="M0 0 L6 0 L6 1 L0 1" stroke="none" stroke-width="0" fill="#fff"></path><path d="M0 0 C2.06 0, 4.11 0, 6 0 M0 0 C2.35 0, 4.71 0, 6 0 M6 0 C6 0.24, 6 0.49, 6 1 M6 0 C6 0.21, 6 0.42, 6 1 M6 1 C3.9 1, 1.81 1, 0 1 M6 1 C4.69 1, 3.39 1, 0 1 M0 1 C0 0.79, 0 0.58, 0 0 M0 1 C0 0.64, 0 0.28, 0 0" stroke="transparent" stroke-width="1" fill="none"></path></g><g stroke-linecap="round" transform="translate(665 721) rotate(0 1.5 1.5)"><path d="M0.3 0 L3 0.3 L2.7 3 L0 2.7 L0.3 0" stroke="none" stroke-width="0" fill="#fff"></path><path d="M0.3 0 M0.3 0 C1.24 0, 2.18 0, 2.7 0 M0.3 0 C1.16 0, 2.01 0, 2.7 0 M2.7 0 C2.9 0, 3 0.1, 3 0.3 M2.7 0 C2.9 0, 3 0.1, 3 0.3 M3 0.3 C3 0.81, 3 1.32, 3 2.7 M3 0.3 C3 0.83, 3 1.36, 3 2.7 M3 2.7 C3 2.9, 2.9 3, 2.7 3 M3 2.7 C3 2.9, 2.9 3, 2.7 3 M2.7 3 C2.18 3, 1.65 3, 0.3 3 M2.7 3 C2.09 3, 1.49 3, 0.3 3 M0.3 3 C0.1 3, 0 2.9, 0 2.7 M0.3 3 C0.1 3, 0 2.9, 0 2.7 M0 2.7 C0 1.83, 0 0.97, 0 0.3 M0 2.7 C0 1.75, 0 0.81, 0 0.3 M0 0.3 C0 0.1, 0.1 0, 0.3 0 M0 0.3 C0 0.1, 0.1 0, 0.3 0" stroke="transparent" stroke-width="1" fill="none"></path></g><g stroke-linecap="round" transform="translate(110 670) rotate(0 120 30)"><path d="M6 0 L236.63 0.38 L238.5 1.5 L240 6 L239.63 56.63 L238.5 58.5 L234 60 L3.38 59.63 L1.5 58.5 L0 54 L0 6 L1.5 1.5 L6 0" stroke="none" stroke-width="0" fill="#FFF"></path><path d="M6 0 M6 0 C61.9 0, 117.81 0, 234 0 M6 0 C94.08 0, 182.17 0, 234 0 M234 0 C238 0, 240 2, 240 6 M234 0 C238 0, 240 2, 240 6 M240 6 C240 16.45, 240 26.9, 240 54 M240 6 C240 18.09, 240 30.18, 240 54 M240 54 C240 58, 238 60, 234 60 M240 54 C240 58, 238 60, 234 60 M234 60 C147.39 60, 60.78 60, 6 60 M234 60 C170.14 60, 106.28 60, 6 60 M6 60 C2 60, 0 58, 0 54 M6 60 C2 60, 0 58, 0 54 M0 54 C0 39.22, 0 24.44, 0 6 M0 54 C0 36.78, 0 19.57, 0 6 M0 6 C0 2, 2 0, 6 0 M0 6 C0 2, 2 0, 6 0" stroke="#202124" stroke-width="1" fill="none"></path></g><g transform="translate(126 686) rotate(0 45.5 9.5)"><text x="0" y="15" font-family="Helvetica, Segoe UI Emoji" font-size="16px" fill="#1A73E8" text-anchor="start" style="white-space: pre;" direction="ltr">Cloud Vision</text></g><g stroke-linecap="round"><g transform="translate(316 698) rotate(0 1 4)" fill-rule="evenodd"><path d="M0 0 L6 5 L6 8 L-4 0 L0 0" stroke="none" stroke-width="0" fill="#669df6" fill-rule="evenodd"></path><path d="M0 0 C2.02 1.68, 4.04 3.36, 6 5 M0 0 C1.26 1.05, 2.52 2.1, 6 5 M6 5 C6 5.63, 6 6.27, 6 8 M6 5 C6 6.03, 6 7.07, 6 8 M6 8 C3.81 6.25, 1.62 4.5, -4 0 M6 8 C2.93 5.54, -0.14 3.09, -4 0 M-4 0 C-2.49 0, -0.98 0, 0 0 M-4 0 C-3.14 0, -2.29 0, 0 0 M0 0 C0 0, 0 0, 0 0 M0 0 C0 0, 0 0, 0 0" stroke="#00000000" stroke-width="1" fill="none"></path></g></g><g stroke-linecap="round"><g transform="translate(322 703) rotate(0 5 -1)" fill-rule="evenodd"><path d="M0 0 L6 -5 L10 -5 L0 3 L0 0" stroke="none" stroke-width="0" fill="#669df6" fill-rule="evenodd"></path><path d="M0 0 C1.42 -1.18, 2.83 -2.36, 6 -5 M0 0 C1.72 -1.44, 3.45 -2.87, 6 -5 M6 -5 C7.06 -5, 8.13 -5, 10 -5 M6 -5 C7.42 -5, 8.84 -5, 10 -5 M10 -5 C6.17 -1.94, 2.35 1.12, 0 3 M10 -5 C6.25 -2, 2.5 1, 0 3 M0 3 C0 2.32, 0 1.64, 0 0 M0 3 C0 2.34, 0 1.67, 0 0 M0 0 C0 0, 0 0, 0 0 M0 0 C0 0, 0 0, 0 0" stroke="#00000000" stroke-width="1" fill="none"></path></g></g><g stroke-linecap="round"><g transform="translate(312 698) rotate(0 5 -4)" fill-rule="evenodd"><path d="M0 0 L10 -8 L10 -5 L4 0 L0 0" stroke="none" stroke-width="0" fill="#aecbfa" fill-rule="evenodd"></path><path d="M0 0 C2.52 -2.01, 5.03 -4.03, 10 -8 M0 0 C3.08 -2.46, 6.15 -4.92, 10 -8 M10 -8 C10 -7.07, 10 -6.14, 10 -5 M10 -8 C10 -6.98, 10 -5.95, 10 -5 M10 -5 C8.12 -3.44, 6.24 -1.87, 4 0 M10 -5 C8.05 -3.37, 6.09 -1.74, 4 0 M4 0 C2.81 0, 1.63 0, 0 0 M4 0 C2.6 0, 1.2 0, 0 0 M0 0 C0 0, 0 0, 0 0 M0 0 C0 0, 0 0, 0 0" stroke="#00000000" stroke-width="1" fill="none"></path></g></g><g stroke-linecap="round"><g transform="translate(322 693) rotate(0 5 1)" fill-rule="evenodd"><path d="M0 0 L6 5 L10 5 L0 -3 L0 0" stroke="none" stroke-width="0" fill="#aecbfa" fill-rule="evenodd"></path><path d="M0 0 C2.3 1.92, 4.6 3.84, 6 5 M0 0 C2.22 1.85, 4.44 3.7, 6 5 M6 5 C7.17 5, 8.34 5, 10 5 M6 5 C7.22 5, 8.44 5, 10 5 M10 5 C6.54 2.23, 3.07 -0.54, 0 -3 M10 5 C7.54 3.03, 5.09 1.07, 0 -3 M0 -3 C0 -1.91, 0 -0.82, 0 0 M0 -3 C0 -2.03, 0 -1.05, 0 0 M0 0 C0 0, 0 0, 0 0 M0 0 C0 0, 0 0, 0 0" stroke="#00000000" stroke-width="1" fill="none"></path></g></g><g stroke-linecap="round" transform="translate(320 696) rotate(0 2 2)"><path d="M4 2 C4 2.12, 3.99 2.23, 3.97 2.35 C3.95 2.46, 3.92 2.58, 3.88 2.68 C3.84 2.79, 3.79 2.9, 3.73 3 C3.67 3.1, 3.61 3.2, 3.53 3.29 C3.46 3.37, 3.37 3.46, 3.29 3.53 C3.2 3.61, 3.1 3.67, 3 3.73 C2.9 3.79, 2.79 3.84, 2.68 3.88 C2.58 3.92, 2.46 3.95, 2.35 3.97 C2.23 3.99, 2.12 4, 2 4 C1.88 4, 1.77 3.99, 1.65 3.97 C1.54 3.95, 1.42 3.92, 1.32 3.88 C1.21 3.84, 1.1 3.79, 1 3.73 C0.9 3.67, 0.8 3.61, 0.71 3.53 C0.63 3.46, 0.54 3.37, 0.47 3.29 C0.39 3.2, 0.33 3.1, 0.27 3 C0.21 2.9, 0.16 2.79, 0.12 2.68 C0.08 2.58, 0.05 2.46, 0.03 2.35 C0.01 2.23, 0 2.12, 0 2 C0 1.88, 0.01 1.77, 0.03 1.65 C0.05 1.54, 0.08 1.42, 0.12 1.32 C0.16 1.21, 0.21 1.1, 0.27 1 C0.33 0.9, 0.39 0.8, 0.47 0.71 C0.54 0.63, 0.63 0.54, 0.71 0.47 C0.8 0.39, 0.9 0.33, 1 0.27 C1.1 0.21, 1.21 0.16, 1.32 0.12 C1.42 0.08, 1.54 0.05, 1.65 0.03 C1.77 0.01, 1.88 0, 2 0 C2.12 0, 2.23 0.01, 2.35 0.03 C2.46 0.05, 2.58 0.08, 2.68 0.12 C2.79 0.16, 2.9 0.21, 3 0.27 C3.1 0.33, 3.2 0.39, 3.29 0.47 C3.37 0.54, 3.46 0.63, 3.53 0.71 C3.61 0.8, 3.67 0.9, 3.73 1 C3.79 1.1, 3.84 1.21, 3.88 1.32 C3.92 1.42, 3.95 1.54, 3.97 1.65 C3.99 1.77, 3.99 1.94, 4 2 C4.01 2.06, 4.01 1.94, 4 2" stroke="none" stroke-width="0" fill="#4285f4"></path><path d="M4 2 C4 2.12, 3.99 2.23, 3.97 2.35 C3.95 2.46, 3.92 2.58, 3.88 2.68 C3.84 2.79, 3.79 2.9, 3.73 3 C3.67 3.1, 3.61 3.2, 3.53 3.29 C3.46 3.37, 3.37 3.46, 3.29 3.53 C3.2 3.61, 3.1 3.67, 3 3.73 C2.9 3.79, 2.79 3.84, 2.68 3.88 C2.58 3.92, 2.46 3.95, 2.35 3.97 C2.23 3.99, 2.12 4, 2 4 C1.88 4, 1.77 3.99, 1.65 3.97 C1.54 3.95, 1.42 3.92, 1.32 3.88 C1.21 3.84, 1.1 3.79, 1 3.73 C0.9 3.67, 0.8 3.61, 0.71 3.53 C0.63 3.46, 0.54 3.37, 0.47 3.29 C0.39 3.2, 0.33 3.1, 0.27 3 C0.21 2.9, 0.16 2.79, 0.12 2.68 C0.08 2.58, 0.05 2.46, 0.03 2.35 C0.01 2.23, 0 2.12, 0 2 C0 1.88, 0.01 1.77, 0.03 1.65 C0.05 1.54, 0.08 1.42, 0.12 1.32 C0.16 1.21, 0.21 1.1, 0.27 1 C0.33 0.9, 0.39 0.8, 0.47 0.71 C0.54 0.63, 0.63 0.54, 0.71 0.47 C0.8 0.39, 0.9 0.33, 1 0.27 C1.1 0.21, 1.21 0.16, 1.32 0.12 C1.42 0.08, 1.54 0.05, 1.65 0.03 C1.77 0.01, 1.88 0, 2 0 C2.12 0, 2.23 0.01, 2.35 0.03 C2.46 0.05, 2.58 0.08, 2.68 0.12 C2.79 0.16, 2.9 0.21, 3 0.27 C3.1 0.33, 3.2 0.39, 3.29 0.47 C3.37 0.54, 3.46 0.63, 3.53 0.71 C3.61 0.8, 3.67 0.9, 3.73 1 C3.79 1.1, 3.84 1.21, 3.88 1.32 C3.92 1.42, 3.95 1.54, 3.97 1.65 C3.99 1.77, 3.99 1.94, 4 2 C4.01 2.06, 4.01 1.94, 4 2" stroke="transparent" stroke-width="1" fill="none"></path></g><g stroke-linecap="round"><g transform="translate(390 190) rotate(0 -50 170)"><path d="M0 0 C-22.3 13.38, -44.6 26.76, -100 60 M0 0 C-37.95 22.77, -75.9 45.54, -100 60 M-100 60 C-100 151.06, -100 242.12, -100 340 M-100 60 C-100 145.64, -100 231.27, -100 340" stroke="#202124" stroke-width="1" fill="none"></path></g><g transform="translate(390 190) rotate(0 -50 170)"><path d="M-100 340 L-106.34 326.41 L-93.66 326.41 L-100 340" stroke="none" stroke-width="0" fill="#202124" fill-rule="evenodd"></path><path d="M-100 340 C-101.41 336.97, -102.83 333.94, -106.34 326.41 M-100 340 C-102.41 334.84, -104.81 329.68, -106.34 326.41 M-106.34 326.41 C-102.22 326.41, -98.09 326.41, -93.66 326.41 M-106.34 326.41 C-102.46 326.41, -98.58 326.41, -93.66 326.41 M-93.66 326.41 C-95.03 329.33, -96.39 332.26, -100 340 M-93.66 326.41 C-95.43 330.2, -97.2 333.99, -100 340 M-100 340 C-100 340, -100 340, -100 340 M-100 340 C-100 340, -100 340, -100 340" stroke="#202124" stroke-width="1" fill="none"></path></g></g><g stroke-linecap="round"><g transform="translate(290 590) rotate(0 0 39.5)"><path d="M0 0 C0 5.56, 0 11.12, 0 20 M0 0 C0 4.66, 0 9.33, 0 20 M0 20 C0 37.93, 0 55.86, 0 79 M0 20 C0 33.55, 0 47.09, 0 79" stroke="#202124" stroke-width="1" fill="none"></path></g><g transform="translate(290 590) rotate(0 0 39.5)"><path d="M0 79 L-6.34 65.41 L6.34 65.41 L0 79" stroke="none" stroke-width="0" fill="#202124" fill-rule="evenodd"></path><path d="M0 79 C-1.76 75.22, -3.52 71.44, -6.34 65.41 M0 79 C-1.48 75.83, -2.96 72.66, -6.34 65.41 M-6.34 65.41 C-2.49 65.41, 1.37 65.41, 6.34 65.41 M-6.34 65.41 C-3.43 65.41, -0.52 65.41, 6.34 65.41 M6.34 65.41 C4.35 69.67, 2.36 73.94, 0 79 M6.34 65.41 C4.35 69.66, 2.37 73.92, 0 79 M0 79 C0 79, 0 79, 0 79 M0 79 C0 79, 0 79, 0 79" stroke="#202124" stroke-width="1" fill="none"></path></g></g><g stroke-linecap="round" transform="translate(270 350) rotate(0 16 16)"><path d="M32 16 C32 16.93, 31.92 17.87, 31.76 18.78 C31.6 19.69, 31.35 20.6, 31.04 21.47 C30.72 22.34, 30.32 23.2, 29.86 24 C29.39 24.8, 28.85 25.58, 28.26 26.28 C27.66 26.99, 26.99 27.66, 26.28 28.26 C25.58 28.85, 24.8 29.39, 24 29.86 C23.2 30.32, 22.34 30.72, 21.47 31.04 C20.6 31.35, 19.69 31.6, 18.78 31.76 C17.87 31.92, 16.93 32, 16 32 C15.07 32, 14.13 31.92, 13.22 31.76 C12.31 31.6, 11.4 31.35, 10.53 31.04 C9.66 30.72, 8.8 30.32, 8 29.86 C7.2 29.39, 6.42 28.85, 5.72 28.26 C5.01 27.66, 4.34 26.99, 3.74 26.28 C3.15 25.58, 2.61 24.8, 2.14 24 C1.68 23.2, 1.28 22.34, 0.96 21.47 C0.65 20.6, 0.4 19.69, 0.24 18.78 C0.08 17.87, 0 16.93, 0 16 C0 15.07, 0.08 14.13, 0.24 13.22 C0.4 12.31, 0.65 11.4, 0.96 10.53 C1.28 9.66, 1.68 8.8, 2.14 8 C2.61 7.2, 3.15 6.42, 3.74 5.72 C4.34 5.01, 5.01 4.34, 5.72 3.74 C6.42 3.15, 7.2 2.61, 8 2.14 C8.8 1.68, 9.66 1.28, 10.53 0.96 C11.4 0.65, 12.31 0.4, 13.22 0.24 C14.13 0.08, 15.07 0, 16 0 C16.93 0, 17.87 0.08, 18.78 0.24 C19.69 0.4, 20.6 0.65, 21.47 0.96 C22.34 1.28, 23.2 1.68, 24 2.14 C24.8 2.61, 25.58 3.15, 26.28 3.74 C26.99 4.34, 27.66 5.01, 28.26 5.72 C28.85 6.42, 29.39 7.2, 29.86 8 C30.32 8.8, 30.72 9.66, 31.04 10.53 C31.35 11.4, 31.6 12.31, 31.76 13.22 C31.92 14.13, 31.96 15.54, 32 16 C32.04 16.46, 32.04 15.54, 32 16" stroke="none" stroke-width="0" fill="#202124"></path><path d="M32 16 C32 16.93, 31.92 17.87, 31.76 18.78 C31.6 19.69, 31.35 20.6, 31.04 21.47 C30.72 22.34, 30.32 23.2, 29.86 24 C29.39 24.8, 28.85 25.58, 28.26 26.28 C27.66 26.99, 26.99 27.66, 26.28 28.26 C25.58 28.85, 24.8 29.39, 24 29.86 C23.2 30.32, 22.34 30.72, 21.47 31.04 C20.6 31.35, 19.69 31.6, 18.78 31.76 C17.87 31.92, 16.93 32, 16 32 C15.07 32, 14.13 31.92, 13.22 31.76 C12.31 31.6, 11.4 31.35, 10.53 31.04 C9.66 30.72, 8.8 30.32, 8 29.86 C7.2 29.39, 6.42 28.85, 5.72 28.26 C5.01 27.66, 4.34 26.99, 3.74 26.28 C3.15 25.58, 2.61 24.8, 2.14 24 C1.68 23.2, 1.28 22.34, 0.96 21.47 C0.65 20.6, 0.4 19.69, 0.24 18.78 C0.08 17.87, 0 16.93, 0 16 C0 15.07, 0.08 14.13, 0.24 13.22 C0.4 12.31, 0.65 11.4, 0.96 10.53 C1.28 9.66, 1.68 8.8, 2.14 8 C2.61 7.2, 3.15 6.42, 3.74 5.72 C4.34 5.01, 5.01 4.34, 5.72 3.74 C6.42 3.15, 7.2 2.61, 8 2.14 C8.8 1.68, 9.66 1.28, 10.53 0.96 C11.4 0.65, 12.31 0.4, 13.22 0.24 C14.13 0.08, 15.07 0, 16 0 C16.93 0, 17.87 0.08, 18.78 0.24 C19.69 0.4, 20.6 0.65, 21.47 0.96 C22.34 1.28, 23.2 1.68, 24 2.14 C24.8 2.61, 25.58 3.15, 26.28 3.74 C26.99 4.34, 27.66 5.01, 28.26 5.72 C28.85 6.42, 29.39 7.2, 29.86 8 C30.32 8.8, 30.72 9.66, 31.04 10.53 C31.35 11.4, 31.6 12.31, 31.76 13.22 C31.92 14.13, 31.96 15.54, 32 16 C32.04 16.46, 32.04 15.54, 32 16" stroke="#202124" stroke-width="2" fill="none"></path></g><g transform="translate(280.5 358) rotate(0 4.5 8)"><text x="4.5" y="13" font-family="Helvetica, Segoe UI Emoji" font-size="14px" fill="#FFFFFF" text-anchor="middle" style="white-space: pre;" direction="ltr">1</text></g><g stroke-linecap="round" transform="translate(270 610) rotate(0 16 16)"><path d="M32 16 C32 16.93, 31.92 17.87, 31.76 18.78 C31.6 19.69, 31.35 20.6, 31.04 21.47 C30.72 22.34, 30.32 23.2, 29.86 24 C29.39 24.8, 28.85 25.58, 28.26 26.28 C27.66 26.99, 26.99 27.66, 26.28 28.26 C25.58 28.85, 24.8 29.39, 24 29.86 C23.2 30.32, 22.34 30.72, 21.47 31.04 C20.6 31.35, 19.69 31.6, 18.78 31.76 C17.87 31.92, 16.93 32, 16 32 C15.07 32, 14.13 31.92, 13.22 31.76 C12.31 31.6, 11.4 31.35, 10.53 31.04 C9.66 30.72, 8.8 30.32, 8 29.86 C7.2 29.39, 6.42 28.85, 5.72 28.26 C5.01 27.66, 4.34 26.99, 3.74 26.28 C3.15 25.58, 2.61 24.8, 2.14 24 C1.68 23.2, 1.28 22.34, 0.96 21.47 C0.65 20.6, 0.4 19.69, 0.24 18.78 C0.08 17.87, 0 16.93, 0 16 C0 15.07, 0.08 14.13, 0.24 13.22 C0.4 12.31, 0.65 11.4, 0.96 10.53 C1.28 9.66, 1.68 8.8, 2.14 8 C2.61 7.2, 3.15 6.42, 3.74 5.72 C4.34 5.01, 5.01 4.34, 5.72 3.74 C6.42 3.15, 7.2 2.61, 8 2.14 C8.8 1.68, 9.66 1.28, 10.53 0.96 C11.4 0.65, 12.31 0.4, 13.22 0.24 C14.13 0.08, 15.07 0, 16 0 C16.93 0, 17.87 0.08, 18.78 0.24 C19.69 0.4, 20.6 0.65, 21.47 0.96 C22.34 1.28, 23.2 1.68, 24 2.14 C24.8 2.61, 25.58 3.15, 26.28 3.74 C26.99 4.34, 27.66 5.01, 28.26 5.72 C28.85 6.42, 29.39 7.2, 29.86 8 C30.32 8.8, 30.72 9.66, 31.04 10.53 C31.35 11.4, 31.6 12.31, 31.76 13.22 C31.92 14.13, 31.96 15.54, 32 16 C32.04 16.46, 32.04 15.54, 32 16" stroke="none" stroke-width="0" fill="#202124"></path><path d="M32 16 C32 16.93, 31.92 17.87, 31.76 18.78 C31.6 19.69, 31.35 20.6, 31.04 21.47 C30.72 22.34, 30.32 23.2, 29.86 24 C29.39 24.8, 28.85 25.58, 28.26 26.28 C27.66 26.99, 26.99 27.66, 26.28 28.26 C25.58 28.85, 24.8 29.39, 24 29.86 C23.2 30.32, 22.34 30.72, 21.47 31.04 C20.6 31.35, 19.69 31.6, 18.78 31.76 C17.87 31.92, 16.93 32, 16 32 C15.07 32, 14.13 31.92, 13.22 31.76 C12.31 31.6, 11.4 31.35, 10.53 31.04 C9.66 30.72, 8.8 30.32, 8 29.86 C7.2 29.39, 6.42 28.85, 5.72 28.26 C5.01 27.66, 4.34 26.99, 3.74 26.28 C3.15 25.58, 2.61 24.8, 2.14 24 C1.68 23.2, 1.28 22.34, 0.96 21.47 C0.65 20.6, 0.4 19.69, 0.24 18.78 C0.08 17.87, 0 16.93, 0 16 C0 15.07, 0.08 14.13, 0.24 13.22 C0.4 12.31, 0.65 11.4, 0.96 10.53 C1.28 9.66, 1.68 8.8, 2.14 8 C2.61 7.2, 3.15 6.42, 3.74 5.72 C4.34 5.01, 5.01 4.34, 5.72 3.74 C6.42 3.15, 7.2 2.61, 8 2.14 C8.8 1.68, 9.66 1.28, 10.53 0.96 C11.4 0.65, 12.31 0.4, 13.22 0.24 C14.13 0.08, 15.07 0, 16 0 C16.93 0, 17.87 0.08, 18.78 0.24 C19.69 0.4, 20.6 0.65, 21.47 0.96 C22.34 1.28, 23.2 1.68, 24 2.14 C24.8 2.61, 25.58 3.15, 26.28 3.74 C26.99 4.34, 27.66 5.01, 28.26 5.72 C28.85 6.42, 29.39 7.2, 29.86 8 C30.32 8.8, 30.72 9.66, 31.04 10.53 C31.35 11.4, 31.6 12.31, 31.76 13.22 C31.92 14.13, 31.96 15.54, 32 16 C32.04 16.46, 32.04 15.54, 32 16" stroke="#202124" stroke-width="2" fill="none"></path></g><g transform="translate(280.5 618) rotate(0 4.5 8)"><text x="4.5" y="13" font-family="Helvetica, Segoe UI Emoji" font-size="14px" fill="#FFFFFF" text-anchor="middle" style="white-space: pre;" direction="ltr">2</text></g><g stroke-linecap="round"><g transform="translate(390 190) rotate(0 50 110)"><path d="M0 0 C36.93 22.16, 73.85 44.31, 100 60 M0 0 C25.41 15.25, 50.82 30.49, 100 60 M100 60 C100 97.97, 100 135.94, 100 220 M100 60 C100 102.7, 100 145.4, 100 220" stroke="#202124" stroke-width="1" fill="none"></path></g><g transform="translate(390 190) rotate(0 50 110)"><path d="M100 220 L93.66 206.41 L106.34 206.41 L100 220" stroke="none" stroke-width="0" fill="#202124" fill-rule="evenodd"></path><path d="M100 220 C97.66 214.98, 95.32 209.96, 93.66 206.41 M100 220 C98.39 216.55, 96.78 213.09, 93.66 206.41 M93.66 206.41 C96.67 206.41, 99.68 206.41, 106.34 206.41 M93.66 206.41 C97.04 206.41, 100.43 206.41, 106.34 206.41 M106.34 206.41 C104.97 209.34, 103.6 212.28, 100 220 M106.34 206.41 C103.96 211.52, 101.57 216.63, 100 220 M100 220 C100 220, 100 220, 100 220 M100 220 C100 220, 100 220, 100 220" stroke="#202124" stroke-width="1" fill="none"></path></g></g><g stroke-linecap="round"><g transform="translate(490 549) rotate(180 0 -39.5)"><path d="M0 0 C0 -13.62, 0 -27.24, 0 -40 M0 0 C0 -13.88, 0 -27.76, 0 -40 M0 -40 C0 -53.16, 0 -66.31, 0 -79 M0 -40 C0 -49.97, 0 -59.94, 0 -79" stroke="#202124" stroke-width="1" fill="none"></path></g><g transform="translate(490 549) rotate(180 0 -39.5)"><path d="M0 -79 L6.34 -65.41 L-6.34 -65.41 L0 -79" stroke="none" stroke-width="0" fill="#202124" fill-rule="evenodd"></path><path d="M0 -79 C2.16 -74.37, 4.32 -69.74, 6.34 -65.41 M0 -79 C2.2 -74.28, 4.4 -69.56, 6.34 -65.41 M6.34 -65.41 C2.06 -65.41, -2.22 -65.41, -6.34 -65.41 M6.34 -65.41 C3.1 -65.41, -0.14 -65.41, -6.34 -65.41 M-6.34 -65.41 C-4.22 -69.95, -2.11 -74.49, 0 -79 M-6.34 -65.41 C-4.24 -69.9, -2.14 -74.4, 0 -79 M0 -79 C0 -79, 0 -79, 0 -79 M0 -79 C0 -79, 0 -79, 0 -79" stroke="#202124" stroke-width="1" fill="none"></path></g></g><g stroke-linecap="round"><g transform="translate(490 611) rotate(0 0 38.5)"><path d="M0 0 C0 -0.34, 0 -0.68, 0 -1 M0 0 C0 -0.23, 0 -0.47, 0 -1 M0 -1 C0 27.9, 0 56.8, 0 78 M0 -1 C0 27.06, 0 55.12, 0 78" stroke="#202124" stroke-width="1" fill="none"></path></g><g transform="translate(490 611) rotate(0 0 38.5)"><path d="M0 78 L-6.34 64.41 L6.34 64.41 L0 78" stroke="none" stroke-width="0" fill="#202124" fill-rule="evenodd"></path><path d="M0 78 C-2.15 73.4, -4.29 68.79, -6.34 64.41 M0 78 C-1.49 74.81, -2.98 71.61, -6.34 64.41 M-6.34 64.41 C-1.7 64.41, 2.94 64.41, 6.34 64.41 M-6.34 64.41 C-1.84 64.41, 2.67 64.41, 6.34 64.41 M6.34 64.41 C4.75 67.81, 3.17 71.21, 0 78 M6.34 64.41 C4.82 67.67, 3.3 70.93, 0 78 M0 78 C0 78, 0 78, 0 78 M0 78 C0 78, 0 78, 0 78" stroke="#202124" stroke-width="1" fill="none"></path></g></g><g stroke-linecap="round" transform="translate(470 350) rotate(0 16 16)"><path d="M32 16 C32 16.93, 31.92 17.87, 31.76 18.78 C31.6 19.69, 31.35 20.6, 31.04 21.47 C30.72 22.34, 30.32 23.2, 29.86 24 C29.39 24.8, 28.85 25.58, 28.26 26.28 C27.66 26.99, 26.99 27.66, 26.28 28.26 C25.58 28.85, 24.8 29.39, 24 29.86 C23.2 30.32, 22.34 30.72, 21.47 31.04 C20.6 31.35, 19.69 31.6, 18.78 31.76 C17.87 31.92, 16.93 32, 16 32 C15.07 32, 14.13 31.92, 13.22 31.76 C12.31 31.6, 11.4 31.35, 10.53 31.04 C9.66 30.72, 8.8 30.32, 8 29.86 C7.2 29.39, 6.42 28.85, 5.72 28.26 C5.01 27.66, 4.34 26.99, 3.74 26.28 C3.15 25.58, 2.61 24.8, 2.14 24 C1.68 23.2, 1.28 22.34, 0.96 21.47 C0.65 20.6, 0.4 19.69, 0.24 18.78 C0.08 17.87, 0 16.93, 0 16 C0 15.07, 0.08 14.13, 0.24 13.22 C0.4 12.31, 0.65 11.4, 0.96 10.53 C1.28 9.66, 1.68 8.8, 2.14 8 C2.61 7.2, 3.15 6.42, 3.74 5.72 C4.34 5.01, 5.01 4.34, 5.72 3.74 C6.42 3.15, 7.2 2.61, 8 2.14 C8.8 1.68, 9.66 1.28, 10.53 0.96 C11.4 0.65, 12.31 0.4, 13.22 0.24 C14.13 0.08, 15.07 0, 16 0 C16.93 0, 17.87 0.08, 18.78 0.24 C19.69 0.4, 20.6 0.65, 21.47 0.96 C22.34 1.28, 23.2 1.68, 24 2.14 C24.8 2.61, 25.58 3.15, 26.28 3.74 C26.99 4.34, 27.66 5.01, 28.26 5.72 C28.85 6.42, 29.39 7.2, 29.86 8 C30.32 8.8, 30.72 9.66, 31.04 10.53 C31.35 11.4, 31.6 12.31, 31.76 13.22 C31.92 14.13, 31.96 15.54, 32 16 C32.04 16.46, 32.04 15.54, 32 16" stroke="none" stroke-width="0" fill="#202124"></path><path d="M32 16 C32 16.93, 31.92 17.87, 31.76 18.78 C31.6 19.69, 31.35 20.6, 31.04 21.47 C30.72 22.34, 30.32 23.2, 29.86 24 C29.39 24.8, 28.85 25.58, 28.26 26.28 C27.66 26.99, 26.99 27.66, 26.28 28.26 C25.58 28.85, 24.8 29.39, 24 29.86 C23.2 30.32, 22.34 30.72, 21.47 31.04 C20.6 31.35, 19.69 31.6, 18.78 31.76 C17.87 31.92, 16.93 32, 16 32 C15.07 32, 14.13 31.92, 13.22 31.76 C12.31 31.6, 11.4 31.35, 10.53 31.04 C9.66 30.72, 8.8 30.32, 8 29.86 C7.2 29.39, 6.42 28.85, 5.72 28.26 C5.01 27.66, 4.34 26.99, 3.74 26.28 C3.15 25.58, 2.61 24.8, 2.14 24 C1.68 23.2, 1.28 22.34, 0.96 21.47 C0.65 20.6, 0.4 19.69, 0.24 18.78 C0.08 17.87, 0 16.93, 0 16 C0 15.07, 0.08 14.13, 0.24 13.22 C0.4 12.31, 0.65 11.4, 0.96 10.53 C1.28 9.66, 1.68 8.8, 2.14 8 C2.61 7.2, 3.15 6.42, 3.74 5.72 C4.34 5.01, 5.01 4.34, 5.72 3.74 C6.42 3.15, 7.2 2.61, 8 2.14 C8.8 1.68, 9.66 1.28, 10.53 0.96 C11.4 0.65, 12.31 0.4, 13.22 0.24 C14.13 0.08, 15.07 0, 16 0 C16.93 0, 17.87 0.08, 18.78 0.24 C19.69 0.4, 20.6 0.65, 21.47 0.96 C22.34 1.28, 23.2 1.68, 24 2.14 C24.8 2.61, 25.58 3.15, 26.28 3.74 C26.99 4.34, 27.66 5.01, 28.26 5.72 C28.85 6.42, 29.39 7.2, 29.86 8 C30.32 8.8, 30.72 9.66, 31.04 10.53 C31.35 11.4, 31.6 12.31, 31.76 13.22 C31.92 14.13, 31.96 15.54, 32 16 C32.04 16.46, 32.04 15.54, 32 16" stroke="#202124" stroke-width="2" fill="none"></path></g><g transform="translate(480.5 358) rotate(0 4.5 8)"><text x="4.5" y="13" font-family="Helvetica, Segoe UI Emoji" font-size="14px" fill="#FFFFFF" text-anchor="middle" style="white-space: pre;" direction="ltr">3</text></g><g stroke-linecap="round" transform="translate(470 490) rotate(0 16 16)"><path d="M32 16 C32 16.93, 31.92 17.87, 31.76 18.78 C31.6 19.69, 31.35 20.6, 31.04 21.47 C30.72 22.34, 30.32 23.2, 29.86 24 C29.39 24.8, 28.85 25.58, 28.26 26.28 C27.66 26.99, 26.99 27.66, 26.28 28.26 C25.58 28.85, 24.8 29.39, 24 29.86 C23.2 30.32, 22.34 30.72, 21.47 31.04 C20.6 31.35, 19.69 31.6, 18.78 31.76 C17.87 31.92, 16.93 32, 16 32 C15.07 32, 14.13 31.92, 13.22 31.76 C12.31 31.6, 11.4 31.35, 10.53 31.04 C9.66 30.72, 8.8 30.32, 8 29.86 C7.2 29.39, 6.42 28.85, 5.72 28.26 C5.01 27.66, 4.34 26.99, 3.74 26.28 C3.15 25.58, 2.61 24.8, 2.14 24 C1.68 23.2, 1.28 22.34, 0.96 21.47 C0.65 20.6, 0.4 19.69, 0.24 18.78 C0.08 17.87, 0 16.93, 0 16 C0 15.07, 0.08 14.13, 0.24 13.22 C0.4 12.31, 0.65 11.4, 0.96 10.53 C1.28 9.66, 1.68 8.8, 2.14 8 C2.61 7.2, 3.15 6.42, 3.74 5.72 C4.34 5.01, 5.01 4.34, 5.72 3.74 C6.42 3.15, 7.2 2.61, 8 2.14 C8.8 1.68, 9.66 1.28, 10.53 0.96 C11.4 0.65, 12.31 0.4, 13.22 0.24 C14.13 0.08, 15.07 0, 16 0 C16.93 0, 17.87 0.08, 18.78 0.24 C19.69 0.4, 20.6 0.65, 21.47 0.96 C22.34 1.28, 23.2 1.68, 24 2.14 C24.8 2.61, 25.58 3.15, 26.28 3.74 C26.99 4.34, 27.66 5.01, 28.26 5.72 C28.85 6.42, 29.39 7.2, 29.86 8 C30.32 8.8, 30.72 9.66, 31.04 10.53 C31.35 11.4, 31.6 12.31, 31.76 13.22 C31.92 14.13, 31.96 15.54, 32 16 C32.04 16.46, 32.04 15.54, 32 16" stroke="none" stroke-width="0" fill="#202124"></path><path d="M32 16 C32 16.93, 31.92 17.87, 31.76 18.78 C31.6 19.69, 31.35 20.6, 31.04 21.47 C30.72 22.34, 30.32 23.2, 29.86 24 C29.39 24.8, 28.85 25.58, 28.26 26.28 C27.66 26.99, 26.99 27.66, 26.28 28.26 C25.58 28.85, 24.8 29.39, 24 29.86 C23.2 30.32, 22.34 30.72, 21.47 31.04 C20.6 31.35, 19.69 31.6, 18.78 31.76 C17.87 31.92, 16.93 32, 16 32 C15.07 32, 14.13 31.92, 13.22 31.76 C12.31 31.6, 11.4 31.35, 10.53 31.04 C9.66 30.72, 8.8 30.32, 8 29.86 C7.2 29.39, 6.42 28.85, 5.72 28.26 C5.01 27.66, 4.34 26.99, 3.74 26.28 C3.15 25.58, 2.61 24.8, 2.14 24 C1.68 23.2, 1.28 22.34, 0.96 21.47 C0.65 20.6, 0.4 19.69, 0.24 18.78 C0.08 17.87, 0 16.93, 0 16 C0 15.07, 0.08 14.13, 0.24 13.22 C0.4 12.31, 0.65 11.4, 0.96 10.53 C1.28 9.66, 1.68 8.8, 2.14 8 C2.61 7.2, 3.15 6.42, 3.74 5.72 C4.34 5.01, 5.01 4.34, 5.72 3.74 C6.42 3.15, 7.2 2.61, 8 2.14 C8.8 1.68, 9.66 1.28, 10.53 0.96 C11.4 0.65, 12.31 0.4, 13.22 0.24 C14.13 0.08, 15.07 0, 16 0 C16.93 0, 17.87 0.08, 18.78 0.24 C19.69 0.4, 20.6 0.65, 21.47 0.96 C22.34 1.28, 23.2 1.68, 24 2.14 C24.8 2.61, 25.58 3.15, 26.28 3.74 C26.99 4.34, 27.66 5.01, 28.26 5.72 C28.85 6.42, 29.39 7.2, 29.86 8 C30.32 8.8, 30.72 9.66, 31.04 10.53 C31.35 11.4, 31.6 12.31, 31.76 13.22 C31.92 14.13, 31.96 15.54, 32 16 C32.04 16.46, 32.04 15.54, 32 16" stroke="#202124" stroke-width="2" fill="none"></path></g><g transform="translate(480.5 498) rotate(0 4.5 8)"><text x="4.5" y="13" font-family="Helvetica, Segoe UI Emoji" font-size="14px" fill="#FFFFFF" text-anchor="middle" style="white-space: pre;" direction="ltr">4</text></g><g stroke-linecap="round" transform="translate(470 630) rotate(0 16 16)"><path d="M32 16 C32 16.93, 31.92 17.87, 31.76 18.78 C31.6 19.69, 31.35 20.6, 31.04 21.47 C30.72 22.34, 30.32 23.2, 29.86 24 C29.39 24.8, 28.85 25.58, 28.26 26.28 C27.66 26.99, 26.99 27.66, 26.28 28.26 C25.58 28.85, 24.8 29.39, 24 29.86 C23.2 30.32, 22.34 30.72, 21.47 31.04 C20.6 31.35, 19.69 31.6, 18.78 31.76 C17.87 31.92, 16.93 32, 16 32 C15.07 32, 14.13 31.92, 13.22 31.76 C12.31 31.6, 11.4 31.35, 10.53 31.04 C9.66 30.72, 8.8 30.32, 8 29.86 C7.2 29.39, 6.42 28.85, 5.72 28.26 C5.01 27.66, 4.34 26.99, 3.74 26.28 C3.15 25.58, 2.61 24.8, 2.14 24 C1.68 23.2, 1.28 22.34, 0.96 21.47 C0.65 20.6, 0.4 19.69, 0.24 18.78 C0.08 17.87, 0 16.93, 0 16 C0 15.07, 0.08 14.13, 0.24 13.22 C0.4 12.31, 0.65 11.4, 0.96 10.53 C1.28 9.66, 1.68 8.8, 2.14 8 C2.61 7.2, 3.15 6.42, 3.74 5.72 C4.34 5.01, 5.01 4.34, 5.72 3.74 C6.42 3.15, 7.2 2.61, 8 2.14 C8.8 1.68, 9.66 1.28, 10.53 0.96 C11.4 0.65, 12.31 0.4, 13.22 0.24 C14.13 0.08, 15.07 0, 16 0 C16.93 0, 17.87 0.08, 18.78 0.24 C19.69 0.4, 20.6 0.65, 21.47 0.96 C22.34 1.28, 23.2 1.68, 24 2.14 C24.8 2.61, 25.58 3.15, 26.28 3.74 C26.99 4.34, 27.66 5.01, 28.26 5.72 C28.85 6.42, 29.39 7.2, 29.86 8 C30.32 8.8, 30.72 9.66, 31.04 10.53 C31.35 11.4, 31.6 12.31, 31.76 13.22 C31.92 14.13, 31.96 15.54, 32 16 C32.04 16.46, 32.04 15.54, 32 16" stroke="none" stroke-width="0" fill="#202124"></path><path d="M32 16 C32 16.93, 31.92 17.87, 31.76 18.78 C31.6 19.69, 31.35 20.6, 31.04 21.47 C30.72 22.34, 30.32 23.2, 29.86 24 C29.39 24.8, 28.85 25.58, 28.26 26.28 C27.66 26.99, 26.99 27.66, 26.28 28.26 C25.58 28.85, 24.8 29.39, 24 29.86 C23.2 30.32, 22.34 30.72, 21.47 31.04 C20.6 31.35, 19.69 31.6, 18.78 31.76 C17.87 31.92, 16.93 32, 16 32 C15.07 32, 14.13 31.92, 13.22 31.76 C12.31 31.6, 11.4 31.35, 10.53 31.04 C9.66 30.72, 8.8 30.32, 8 29.86 C7.2 29.39, 6.42 28.85, 5.72 28.26 C5.01 27.66, 4.34 26.99, 3.74 26.28 C3.15 25.58, 2.61 24.8, 2.14 24 C1.68 23.2, 1.28 22.34, 0.96 21.47 C0.65 20.6, 0.4 19.69, 0.24 18.78 C0.08 17.87, 0 16.93, 0 16 C0 15.07, 0.08 14.13, 0.24 13.22 C0.4 12.31, 0.65 11.4, 0.96 10.53 C1.28 9.66, 1.68 8.8, 2.14 8 C2.61 7.2, 3.15 6.42, 3.74 5.72 C4.34 5.01, 5.01 4.34, 5.72 3.74 C6.42 3.15, 7.2 2.61, 8 2.14 C8.8 1.68, 9.66 1.28, 10.53 0.96 C11.4 0.65, 12.31 0.4, 13.22 0.24 C14.13 0.08, 15.07 0, 16 0 C16.93 0, 17.87 0.08, 18.78 0.24 C19.69 0.4, 20.6 0.65, 21.47 0.96 C22.34 1.28, 23.2 1.68, 24 2.14 C24.8 2.61, 25.58 3.15, 26.28 3.74 C26.99 4.34, 27.66 5.01, 28.26 5.72 C28.85 6.42, 29.39 7.2, 29.86 8 C30.32 8.8, 30.72 9.66, 31.04 10.53 C31.35 11.4, 31.6 12.31, 31.76 13.22 C31.92 14.13, 31.96 15.54, 32 16 C32.04 16.46, 32.04 15.54, 32 16" stroke="#202124" stroke-width="2" fill="none"></path></g><g transform="translate(480.5 638) rotate(0 4.5 8)"><text x="4.5" y="13" font-family="Helvetica, Segoe UI Emoji" font-size="14px" fill="#FFFFFF" text-anchor="middle" style="white-space: pre;" direction="ltr">6</text></g><g stroke-linecap="round"><g transform="translate(270 530) rotate(0 50 -170)"><path d="M0 0 C0 -82.83, 0 -165.66, 0 -280 M0 0 C0 -78.3, 0 -156.59, 0 -280 M0 -280 C23.76 -294.25, 47.52 -308.51, 100 -340 M0 -280 C32.69 -299.61, 65.38 -319.23, 100 -340" stroke="#202124" stroke-width="1" fill="none"></path></g><g transform="translate(270 530) rotate(0 50 -170)"><path d="M100 -340 L91.6 -327.57 L85.08 -338.44 L100 -340" stroke="none" stroke-width="0" fill="#202124" fill-rule="evenodd"></path><path d="M100 -340 C97.52 -336.32, 95.03 -332.65, 91.6 -327.57 M100 -340 C97.65 -336.52, 95.3 -333.05, 91.6 -327.57 M91.6 -327.57 C90.05 -330.15, 88.5 -332.74, 85.08 -338.44 M91.6 -327.57 C89.47 -331.12, 87.34 -334.68, 85.08 -338.44 M85.08 -338.44 C89.8 -338.93, 94.51 -339.43, 100 -340 M85.08 -338.44 C90.73 -339.03, 96.38 -339.62, 100 -340 M100 -340 C100 -340, 100 -340, 100 -340 M100 -340 C100 -340, 100 -340, 100 -340" stroke="#202124" stroke-width="1" fill="none"></path></g></g><g stroke-linecap="round"><g transform="translate(450 570) rotate(0 -50 70)"><path d="M0 0 C-19.64 0, -39.29 0, -60 0 M0 0 C-19.67 0, -39.33 0, -60 0 M-60 0 C-60 36.73, -60 73.46, -60 140 M-60 0 C-60 44.11, -60 88.23, -60 140 M-60 140 C-69.78 140, -79.56 140, -100 140 M-60 140 C-72.83 140, -85.66 140, -100 140" stroke="#202124" stroke-width="1" fill="none"></path></g><g transform="translate(450 570) rotate(0 -50 70)"><path d="M-100 140 L-86.41 133.66 L-86.41 146.34 L-100 140" stroke="none" stroke-width="0" fill="#202124" fill-rule="evenodd"></path><path d="M-100 140 C-95.55 137.92, -91.1 135.85, -86.41 133.66 M-100 140 C-95.54 137.92, -91.09 135.84, -86.41 133.66 M-86.41 133.66 C-86.41 136.99, -86.41 140.31, -86.41 146.34 M-86.41 133.66 C-86.41 137.66, -86.41 141.65, -86.41 146.34 M-86.41 146.34 C-89.73 144.79, -93.05 143.24, -100 140 M-86.41 146.34 C-90.77 144.31, -95.13 142.27, -100 140 M-100 140 C-100 140, -100 140, -100 140 M-100 140 C-100 140, -100 140, -100 140" stroke="#202124" stroke-width="1" fill="none"></path></g></g><g stroke-linecap="round" transform="translate(370 630) rotate(0 16 16)"><path d="M32 16 C32 16.93, 31.92 17.87, 31.76 18.78 C31.6 19.69, 31.35 20.6, 31.04 21.47 C30.72 22.34, 30.32 23.2, 29.86 24 C29.39 24.8, 28.85 25.58, 28.26 26.28 C27.66 26.99, 26.99 27.66, 26.28 28.26 C25.58 28.85, 24.8 29.39, 24 29.86 C23.2 30.32, 22.34 30.72, 21.47 31.04 C20.6 31.35, 19.69 31.6, 18.78 31.76 C17.87 31.92, 16.93 32, 16 32 C15.07 32, 14.13 31.92, 13.22 31.76 C12.31 31.6, 11.4 31.35, 10.53 31.04 C9.66 30.72, 8.8 30.32, 8 29.86 C7.2 29.39, 6.42 28.85, 5.72 28.26 C5.01 27.66, 4.34 26.99, 3.74 26.28 C3.15 25.58, 2.61 24.8, 2.14 24 C1.68 23.2, 1.28 22.34, 0.96 21.47 C0.65 20.6, 0.4 19.69, 0.24 18.78 C0.08 17.87, 0 16.93, 0 16 C0 15.07, 0.08 14.13, 0.24 13.22 C0.4 12.31, 0.65 11.4, 0.96 10.53 C1.28 9.66, 1.68 8.8, 2.14 8 C2.61 7.2, 3.15 6.42, 3.74 5.72 C4.34 5.01, 5.01 4.34, 5.72 3.74 C6.42 3.15, 7.2 2.61, 8 2.14 C8.8 1.68, 9.66 1.28, 10.53 0.96 C11.4 0.65, 12.31 0.4, 13.22 0.24 C14.13 0.08, 15.07 0, 16 0 C16.93 0, 17.87 0.08, 18.78 0.24 C19.69 0.4, 20.6 0.65, 21.47 0.96 C22.34 1.28, 23.2 1.68, 24 2.14 C24.8 2.61, 25.58 3.15, 26.28 3.74 C26.99 4.34, 27.66 5.01, 28.26 5.72 C28.85 6.42, 29.39 7.2, 29.86 8 C30.32 8.8, 30.72 9.66, 31.04 10.53 C31.35 11.4, 31.6 12.31, 31.76 13.22 C31.92 14.13, 31.96 15.54, 32 16 C32.04 16.46, 32.04 15.54, 32 16" stroke="none" stroke-width="0" fill="#202124"></path><path d="M32 16 C32 16.93, 31.92 17.87, 31.76 18.78 C31.6 19.69, 31.35 20.6, 31.04 21.47 C30.72 22.34, 30.32 23.2, 29.86 24 C29.39 24.8, 28.85 25.58, 28.26 26.28 C27.66 26.99, 26.99 27.66, 26.28 28.26 C25.58 28.85, 24.8 29.39, 24 29.86 C23.2 30.32, 22.34 30.72, 21.47 31.04 C20.6 31.35, 19.69 31.6, 18.78 31.76 C17.87 31.92, 16.93 32, 16 32 C15.07 32, 14.13 31.92, 13.22 31.76 C12.31 31.6, 11.4 31.35, 10.53 31.04 C9.66 30.72, 8.8 30.32, 8 29.86 C7.2 29.39, 6.42 28.85, 5.72 28.26 C5.01 27.66, 4.34 26.99, 3.74 26.28 C3.15 25.58, 2.61 24.8, 2.14 24 C1.68 23.2, 1.28 22.34, 0.96 21.47 C0.65 20.6, 0.4 19.69, 0.24 18.78 C0.08 17.87, 0 16.93, 0 16 C0 15.07, 0.08 14.13, 0.24 13.22 C0.4 12.31, 0.65 11.4, 0.96 10.53 C1.28 9.66, 1.68 8.8, 2.14 8 C2.61 7.2, 3.15 6.42, 3.74 5.72 C4.34 5.01, 5.01 4.34, 5.72 3.74 C6.42 3.15, 7.2 2.61, 8 2.14 C8.8 1.68, 9.66 1.28, 10.53 0.96 C11.4 0.65, 12.31 0.4, 13.22 0.24 C14.13 0.08, 15.07 0, 16 0 C16.93 0, 17.87 0.08, 18.78 0.24 C19.69 0.4, 20.6 0.65, 21.47 0.96 C22.34 1.28, 23.2 1.68, 24 2.14 C24.8 2.61, 25.58 3.15, 26.28 3.74 C26.99 4.34, 27.66 5.01, 28.26 5.72 C28.85 6.42, 29.39 7.2, 29.86 8 C30.32 8.8, 30.72 9.66, 31.04 10.53 C31.35 11.4, 31.6 12.31, 31.76 13.22 C31.92 14.13, 31.96 15.54, 32 16 C32.04 16.46, 32.04 15.54, 32 16" stroke="#202124" stroke-width="2" fill="none"></path></g><g transform="translate(380.5 638) rotate(0 4.5 8)"><text x="4.5" y="13" font-family="Helvetica, Segoe UI Emoji" font-size="14px" fill="#FFFFFF" text-anchor="middle" style="white-space: pre;" direction="ltr">5</text></g></svg>